<svg preserveAspectRatio="none" width="100%" height="100%" overflow="visible" style="display: block;" viewBox="0 0 24 24" fill="none" xmlns="http://www.w3.org/2000/svg">
<g id="SVG">
<path id="Vector" d="M19.4706 14.645C19.4772 14.6128 19.5233 14.6128 19.5299 14.645C19.8722 16.3195 21.1808 17.6281 22.8552 17.9704C22.8875 17.977 22.8875 18.0231 22.8552 18.0297C21.1808 18.3719 19.8722 19.6805 19.5299 21.355C19.5233 21.3873 19.4772 21.3873 19.4706 21.355C19.1284 19.6805 17.8198 18.3719 16.1453 18.0297C16.113 18.0231 16.113 17.977 16.1453 17.9704C17.8198 17.6281 19.1284 16.3195 19.4706 14.645Z" stroke="var(--stroke-0, white)" stroke-width="1.5"/>
<path id="Vector_2" d="M14.7187 10.3761C14.7813 10.07 15.2187 10.07 15.2812 10.3761C15.4194 11.0522 15.9478 11.5805 16.6239 11.7187C16.93 11.7813 16.93 12.2187 16.6239 12.2812C15.9478 12.4194 15.4194 12.9478 15.2812 13.6239C15.2187 13.93 14.7813 13.93 14.7187 13.6239C14.5805 12.9478 14.0522 12.4194 13.3761 12.2812C13.07 12.2187 13.07 11.7813 13.3761 11.7187C14.0522 11.5805 14.5805 11.0522 14.7187 10.3761Z" fill="var(--fill-0, white)"/>
<path id="Vector_3" d="M13.3591 20.6584C13.7228 20.4601 13.8568 20.0045 13.6584 19.6409C13.4601 19.2772 13.0045 19.1432 12.6409 19.3416L13 20L13.3591 20.6584ZM19.75 11.5C19.75 11.9142 20.0858 12.25 20.5 12.25C20.9142 12.25 21.25 11.9142 21.25 11.5H20.5H19.75ZM3.50001 18.73H2.75L2.75001 18.7319L3.50001 18.73ZM6.12781 20.6241L6.36324 21.3361L6.36498 21.3356L6.12781 20.6241ZM8.5 6.75C8.08579 6.75 7.75 7.08579 7.75 7.5C7.75 7.91421 8.08579 8.25 8.5 8.25V7.5V6.75ZM15.5 8.25C15.9142 8.25 16.25 7.91421 16.25 7.5C16.25 7.08579 15.9142 6.75 15.5 6.75V7.5V8.25ZM8.5 11.25C8.08579 11.25 7.75 11.5858 7.75 12C7.75 12.4142 8.08579 12.75 8.5 12.75V12V11.25ZM10.25 12.75C10.6642 12.75 11 12.4142 11 12C11 11.5858 10.6642 11.25 10.25 11.25V12V12.75ZM14.1 2.5V1.75H9.9V2.5V3.25H14.1V2.5ZM11.5622 20.7843L11.9213 21.4427L13.3591 20.6584L13 20L12.6409 19.3416L11.2031 20.1258L11.5622 20.7843ZM20.5 11.5H21.25V8.9H20.5H19.75V11.5H20.5ZM6.85261 20.3825L7.08978 21.094C7.59417 20.9258 8.14793 21 8.5903 21.2949L9.00633 20.6709L9.42235 20.0468C8.59483 19.4952 7.55896 19.3564 6.61544 19.671L6.85261 20.3825ZM3.50001 18.73L2.75001 18.7319C2.75459 20.6032 4.58645 21.9236 6.36324 21.3361L6.12781 20.6241L5.89238 19.912C5.08475 20.179 4.25208 19.5788 4.25 18.7282L3.50001 18.73ZM9.9 2.5V1.75C8.79227 1.75 7.91637 1.74942 7.21173 1.80699C6.49834 1.86527 5.89472 1.98688 5.34355 2.26772L5.68404 2.93597L6.02453 3.60423C6.329 3.44909 6.71325 3.35271 7.33388 3.30201C7.96326 3.25058 8.76752 3.25 9.9 3.25V2.5ZM3.5 8.9H4.25C4.25 7.76752 4.25058 6.96326 4.30201 6.33388C4.35271 5.71325 4.44909 5.329 4.60423 5.02453L3.93597 4.68404L3.26772 4.34354C2.98688 4.89472 2.86527 5.49834 2.80699 6.21173C2.74942 6.91637 2.75 7.79227 2.75 8.9H3.5ZM5.68404 2.93597L5.34355 2.26772C4.44978 2.72312 3.72312 3.44977 3.26772 4.34354L3.93597 4.68404L4.60423 5.02453C4.91582 4.413 5.413 3.91582 6.02453 3.60423L5.68404 2.93597ZM9.00633 20.6709L8.5903 21.2949C9.58692 21.9593 10.8698 22.0162 11.9213 21.4427L11.5622 20.7843L11.2031 20.1258C10.6409 20.4325 9.95513 20.402 9.42235 20.0468L9.00633 20.6709ZM14.1 2.5V3.25C15.2325 3.25 16.0367 3.25058 16.6661 3.30201C17.2867 3.35271 17.671 3.44909 17.9755 3.60423L18.316 2.93597L18.6565 2.26772C18.1053 1.98688 17.5017 1.86527 16.7883 1.80699C16.0836 1.74942 15.2077 1.75 14.1 1.75V2.5ZM20.5 8.9H21.25C21.25 7.79227 21.2506 6.91637 21.193 6.21173C21.1347 5.49834 21.0131 4.89472 20.7323 4.34355L20.064 4.68404L19.3958 5.02453C19.5509 5.329 19.6473 5.71325 19.698 6.33388C19.7494 6.96326 19.75 7.76752 19.75 8.9H20.5ZM18.316 2.93597L17.9755 3.60423C18.587 3.91582 19.0842 4.413 19.3958 5.02453L20.064 4.68404L20.7323 4.34355C20.2769 3.44979 19.5502 2.72312 18.6565 2.26772L18.316 2.93597ZM8.5 7.5V8.25H15.5V7.5V6.75H8.5V7.5ZM8.5 12V12.75H10.25V12V11.25H8.5V12ZM3.5 8.9H2.75V18.73H3.50001H4.25001L4.25 8.9H3.5ZM6.12781 20.6241L6.36498 21.3356L7.08978 21.094L6.85261 20.3825L6.61544 19.671L5.89065 19.9125L6.12781 20.6241Z" fill="var(--fill-0, white)"/>
</g>
</svg>
