<svg preserveAspectRatio="none" width="100%" height="100%" overflow="visible" style="display: block;" viewBox="0 0 28.1934 17.6953" fill="none" xmlns="http://www.w3.org/2000/svg">
<g id="&#244;&#128;&#155;&#185;" style="mix-blend-mode:plus-lighter">
<path d="M5.94727 6.88477C5.94727 7.15169 6.01888 7.36003 6.16211 7.50977C6.31185 7.65951 6.52018 7.73438 6.78711 7.73438H8.59375V9.49219C8.59375 9.7526 8.66211 9.95768 8.79883 10.1074C8.94206 10.2572 9.14062 10.332 9.39453 10.332C9.64193 10.332 9.83724 10.2572 9.98047 10.1074C10.1237 9.95768 10.1953 9.7526 10.1953 9.49219V7.73438H11.8848C12.1712 7.73438 12.3926 7.65951 12.5488 7.50977C12.7116 7.36003 12.793 7.15169 12.793 6.88477C12.793 6.63086 12.7116 6.43229 12.5488 6.28906C12.3926 6.13932 12.1712 6.06445 11.8848 6.06445H10.1953V4.30664C10.1953 4.04622 10.1237 3.8444 9.98047 3.70117C9.83724 3.55143 9.64193 3.47656 9.39453 3.47656C9.14062 3.47656 8.94206 3.55143 8.79883 3.70117C8.66211 3.8444 8.59375 4.04622 8.59375 4.30664V6.06445H6.78711C6.52018 6.06445 6.31185 6.13932 6.16211 6.28906C6.01888 6.43229 5.94727 6.63086 5.94727 6.88477ZM20.3613 6.78711C20.7715 6.78711 21.1198 6.64388 21.4062 6.35742C21.6927 6.07096 21.8359 5.72591 21.8359 5.32227C21.8359 4.91211 21.6927 4.5638 21.4062 4.27734C21.1198 3.99089 20.7715 3.84766 20.3613 3.84766C19.9577 3.84766 19.6094 3.99089 19.3164 4.27734C19.0299 4.5638 18.8867 4.91211 18.8867 5.32227C18.8867 5.72591 19.0299 6.07096 19.3164 6.35742C19.6094 6.64388 19.9577 6.78711 20.3613 6.78711ZM17.4023 9.76562C17.806 9.76562 18.151 9.62565 18.4375 9.3457C18.7305 9.05924 18.877 8.71094 18.877 8.30078C18.877 7.89714 18.7305 7.55208 18.4375 7.26562C18.151 6.97266 17.806 6.82617 17.4023 6.82617C16.9987 6.82617 16.6504 6.97266 16.3574 7.26562C16.071 7.55208 15.9277 7.89714 15.9277 8.30078C15.9277 8.71094 16.071 9.05924 16.3574 9.3457C16.6504 9.62565 16.9987 9.76562 17.4023 9.76562ZM3.7207 17.6953C2.97852 17.6953 2.32747 17.5391 1.76758 17.2266C1.20768 16.9206 0.771484 16.4844 0.458984 15.918C0.152995 15.3516 0 14.6875 0 13.9258C0 13.4375 0.0520833 12.9134 0.15625 12.3535C0.266927 11.7936 0.416667 11.1979 0.605469 10.5664C0.800781 9.89583 1.04167 9.16667 1.32812 8.37891C1.61458 7.59115 1.92057 6.79688 2.24609 5.99609C2.57812 5.1888 2.91016 4.43359 3.24219 3.73047C3.52214 3.14453 3.78581 2.65625 4.0332 2.26562C4.2806 1.875 4.5931 1.55599 4.9707 1.30859C5.35482 1.0612 5.89193 0.859375 6.58203 0.703125C7.5 0.494792 8.59049 0.325521 9.85352 0.195312C11.123 0.0651042 12.5391 0 14.1016 0C15.6641 0 17.0768 0.0651042 18.3398 0.195312C19.6029 0.325521 20.6934 0.494792 21.6113 0.703125C22.3014 0.859375 22.8353 1.0612 23.2129 1.30859C23.597 1.55599 23.9128 1.875 24.1602 2.26562C24.4076 2.65625 24.6712 3.14453 24.9512 3.73047C25.2832 4.43359 25.612 5.1888 25.9375 5.99609C26.2695 6.79688 26.5788 7.59115 26.8652 8.37891C27.1517 9.16667 27.3926 9.89583 27.5879 10.5664C27.7767 11.1979 27.9232 11.7936 28.0273 12.3535C28.138 12.9134 28.1934 13.4375 28.1934 13.9258C28.1934 14.6875 28.0371 15.3516 27.7246 15.918C27.4186 16.4844 26.9857 16.9206 26.4258 17.2266C25.8659 17.5391 25.2148 17.6953 24.4727 17.6953C23.8021 17.6953 23.2227 17.5716 22.7344 17.3242C22.2526 17.0768 21.8066 16.6992 21.3965 16.1914L19.6289 14.0527C19.4987 13.8965 19.362 13.7826 19.2188 13.7109C19.0755 13.6393 18.9323 13.6035 18.7891 13.6035H9.4043C9.26107 13.6035 9.11784 13.6393 8.97461 13.7109C8.83138 13.7826 8.69466 13.8965 8.56445 14.0527L6.79688 16.1914C6.38672 16.6992 5.9375 17.0768 5.44922 17.3242C4.96745 17.5716 4.39128 17.6953 3.7207 17.6953Z" fill="var(--fill-0, white)"/>
</g>
</svg>
