<svg preserveAspectRatio="none" width="100%" height="100%" overflow="visible" style="display: block;" viewBox="0 0 25.72 21.2702" fill="none" xmlns="http://www.w3.org/2000/svg">
<g id="&#244;&#128;&#190;&#161;" style="mix-blend-mode:plus-lighter">
<path d="M7.89418 21.2702C6.98923 21.2702 6.31214 21.0489 5.86293 20.6062C5.42022 20.17 5.19235 19.5027 5.17933 18.6042L5.06214 9.01437L2.6598 9.56124C2.20407 9.6589 1.82972 9.61658 1.53675 9.43429C1.2503 9.252 1.05173 8.92648 0.941051 8.45773L0.0719105 4.99093C-0.045277 4.52869 -0.0192353 4.13807 0.150036 3.81906C0.325817 3.49354 0.635062 3.23637 1.07777 3.04757L7.95277 0.117885C8.14808 0.0332496 8.33688 -0.00581287 8.51918 0.000697545C8.70147 0.000697545 8.88376 0.0430152 9.06605 0.127651C9.49574 0.329474 9.9059 0.498744 10.2965 0.635463C10.6937 0.772182 11.0973 0.876349 11.5075 0.947963C11.9241 1.01958 12.3766 1.05538 12.8649 1.05538C13.3467 1.05538 13.7926 1.01958 14.2028 0.947963C14.6194 0.876349 15.0231 0.772182 15.4137 0.635463C15.8108 0.498744 16.2243 0.329474 16.6539 0.127651C16.8362 0.0430152 17.0185 0.000697545 17.2008 0.000697545C17.3831 -0.00581287 17.5719 0.0332496 17.7672 0.117885L24.6422 3.04757C25.0914 3.23637 25.4007 3.49354 25.57 3.81906C25.7392 4.13807 25.7653 4.52869 25.6481 4.99093L24.7789 8.45773C24.6683 8.92648 24.4664 9.252 24.1735 9.43429C23.887 9.61658 23.5159 9.6589 23.0602 9.56124L20.6676 9.01437L20.5407 18.6042C20.5276 19.5027 20.2965 20.17 19.8473 20.6062C19.4046 21.0489 18.7308 21.2702 17.8258 21.2702H7.89418ZM12.8649 4.10226C13.4248 4.10226 13.9261 4.01111 14.3688 3.82882C14.8115 3.64002 15.1858 3.37635 15.4918 3.03781C15.7978 2.69927 16.0322 2.29562 16.195 1.82687C15.6871 2.02218 15.1468 2.17192 14.5739 2.27609C14.0075 2.38025 13.4378 2.43234 12.8649 2.43234C12.2855 2.43234 11.7093 2.38025 11.1364 2.27609C10.57 2.17192 10.0328 2.02218 9.52504 1.82687C9.69431 2.30213 9.93194 2.70903 10.2379 3.04757C10.5504 3.38611 10.9248 3.64653 11.361 3.82882C11.8037 4.01111 12.305 4.10226 12.8649 4.10226Z" fill="var(--fill-0, white)"/>
</g>
</svg>
