<svg preserveAspectRatio="none" width="100%" height="100%" overflow="visible" style="display: block;" viewBox="0 0 27.8359 12.5703" fill="none" xmlns="http://www.w3.org/2000/svg">
<g id="&#244;&#129;&#142;&#184;" style="mix-blend-mode:plus-lighter">
<path d="M2.48438 10.9609C1.63542 10.9609 1.00781 10.7552 0.601562 10.3438C0.200521 9.92708 0 9.27344 0 8.38281V7.38281C0 6.76823 0.138021 6.21875 0.414062 5.73438C0.690104 5.24479 1.08594 4.84375 1.60156 4.53125C2.1224 4.21875 2.74479 4.01823 3.46875 3.92969L6.92969 3.50781L10.0938 1.52344C10.5729 1.22135 11.0286 0.973958 11.4609 0.78125C11.8984 0.583333 12.3568 0.427083 12.8359 0.3125C13.3151 0.197917 13.8516 0.117188 14.4453 0.0703125C15.0443 0.0234375 15.7422 0 16.5391 0H17.7266C18.4609 0 19.1458 0.0885417 19.7812 0.265625C20.4219 0.4375 21.0182 0.666667 21.5703 0.953125C22.1276 1.23958 22.6406 1.55469 23.1094 1.89844C23.5833 2.24219 24.0156 2.58073 24.4062 2.91406L25.6484 3.32812C26.388 3.56771 26.9375 3.92188 27.2969 4.39062C27.6562 4.85417 27.8359 5.44792 27.8359 6.17188V8.33594C27.8359 9.24219 27.6354 9.90625 27.2344 10.3281C26.8333 10.75 26.2057 10.9609 25.3516 10.9609H24.8516C24.8776 10.8411 24.8984 10.7214 24.9141 10.6016C24.9297 10.4766 24.9375 10.3516 24.9375 10.2266C24.9375 9.61719 24.7917 9.06771 24.5 8.57812C24.2083 8.08854 23.8151 7.70052 23.3203 7.41406C22.8307 7.1224 22.2812 6.97656 21.6719 6.97656C21.0677 6.97656 20.5182 7.1224 20.0234 7.41406C19.5339 7.70052 19.1432 8.08854 18.8516 8.57812C18.5599 9.06771 18.4141 9.61719 18.4141 10.2266C18.4141 10.3516 18.4219 10.4766 18.4375 10.6016C18.4531 10.7214 18.4714 10.8411 18.4922 10.9609H9.32812C9.35938 10.8411 9.38021 10.7214 9.39062 10.6016C9.40625 10.4766 9.41406 10.3516 9.41406 10.2266C9.41406 9.61719 9.26823 9.06771 8.97656 8.57812C8.6901 8.08854 8.29948 7.70052 7.80469 7.41406C7.3151 7.1224 6.76562 6.97656 6.15625 6.97656C5.54688 6.97656 4.99479 7.1224 4.5 7.41406C4.01042 7.70052 3.61979 8.08854 3.32812 8.57812C3.04167 9.06771 2.89844 9.61719 2.89844 10.2266C2.89844 10.3516 2.90365 10.4766 2.91406 10.6016C2.92969 10.7214 2.95052 10.8411 2.97656 10.9609H2.48438ZM6.15625 12.5703C5.71875 12.5703 5.32292 12.4661 4.96875 12.2578C4.61458 12.0495 4.33333 11.7682 4.125 11.4141C3.91667 11.0599 3.8125 10.6641 3.8125 10.2266C3.8125 9.78906 3.91667 9.39323 4.125 9.03906C4.33333 8.6849 4.61458 8.40365 4.96875 8.19531C5.32292 7.98698 5.71875 7.88281 6.15625 7.88281C6.59896 7.88281 6.9974 7.98698 7.35156 8.19531C7.70573 8.40365 7.98698 8.6849 8.19531 9.03906C8.40365 9.39323 8.50781 9.78906 8.50781 10.2266C8.50781 10.6641 8.40365 11.0599 8.19531 11.4141C7.98698 11.7682 7.70573 12.0495 7.35156 12.2578C6.9974 12.4661 6.59896 12.5703 6.15625 12.5703ZM21.6719 12.5703C21.2344 12.5703 20.8385 12.4661 20.4844 12.2578C20.1302 12.0495 19.849 11.7682 19.6406 11.4141C19.4323 11.0599 19.3281 10.6641 19.3281 10.2266C19.3281 9.78906 19.4323 9.39323 19.6406 9.03906C19.849 8.6849 20.1302 8.40365 20.4844 8.19531C20.8385 7.98698 21.2344 7.88281 21.6719 7.88281C22.1146 7.88281 22.513 7.98698 22.8672 8.19531C23.2214 8.40365 23.5026 8.6849 23.7109 9.03906C23.9193 9.39323 24.0234 9.78906 24.0234 10.2266C24.0234 10.6641 23.9193 11.0599 23.7109 11.4141C23.5026 11.7682 23.2214 12.0495 22.8672 12.2578C22.513 12.4661 22.1146 12.5703 21.6719 12.5703Z" fill="var(--fill-0, white)"/>
</g>
</svg>
