<svg preserveAspectRatio="none" width="100%" height="100%" overflow="visible" style="display: block;" viewBox="0 0 14.5781 2.96094" fill="none" xmlns="http://www.w3.org/2000/svg">
<g id="&#244;&#128;&#141;&#160;" style="mix-blend-mode:plus-lighter">
<path d="M1.48438 2.96094C1.20833 2.96094 0.958333 2.89583 0.734375 2.76562C0.510417 2.63021 0.330729 2.45052 0.195312 2.22656C0.0651042 2.0026 0 1.75521 0 1.48438C0 1.20833 0.0651042 0.958333 0.195312 0.734375C0.330729 0.510417 0.510417 0.333333 0.734375 0.203125C0.958333 0.0677083 1.20833 0 1.48438 0C1.75521 0 2.0026 0.0677083 2.22656 0.203125C2.45052 0.333333 2.6276 0.510417 2.75781 0.734375C2.89323 0.958333 2.96094 1.20833 2.96094 1.48438C2.96094 1.75521 2.89323 2.0026 2.75781 2.22656C2.6276 2.45052 2.45052 2.63021 2.22656 2.76562C2.0026 2.89583 1.75521 2.96094 1.48438 2.96094ZM7.28906 2.96094C7.01302 2.96094 6.76302 2.89583 6.53906 2.76562C6.3151 2.63021 6.13542 2.45052 6 2.22656C5.86979 2.0026 5.80469 1.75521 5.80469 1.48438C5.80469 1.20833 5.86979 0.958333 6 0.734375C6.13542 0.510417 6.3151 0.333333 6.53906 0.203125C6.76302 0.0677083 7.01302 0 7.28906 0C7.5599 0 7.80729 0.0677083 8.03125 0.203125C8.25521 0.333333 8.43229 0.510417 8.5625 0.734375C8.69792 0.958333 8.76562 1.20833 8.76562 1.48438C8.76562 1.75521 8.69792 2.0026 8.5625 2.22656C8.43229 2.45052 8.25521 2.63021 8.03125 2.76562C7.80729 2.89583 7.5599 2.96094 7.28906 2.96094ZM13.0938 2.96094C12.8177 2.96094 12.5677 2.89583 12.3438 2.76562C12.1198 2.63021 11.9401 2.45052 11.8047 2.22656C11.6745 2.0026 11.6094 1.75521 11.6094 1.48438C11.6094 1.20833 11.6745 0.958333 11.8047 0.734375C11.9401 0.510417 12.1198 0.333333 12.3438 0.203125C12.5677 0.0677083 12.8177 0 13.0938 0C13.3646 0 13.612 0.0677083 13.8359 0.203125C14.0599 0.333333 14.2396 0.510417 14.375 0.734375C14.5104 0.958333 14.5781 1.20833 14.5781 1.48438C14.5781 1.75521 14.5104 2.0026 14.375 2.22656C14.2396 2.45052 14.0599 2.63021 13.8359 2.76562C13.612 2.89583 13.3646 2.96094 13.0938 2.96094Z" fill="var(--fill-0, white)"/>
</g>
</svg>
