<svg preserveAspectRatio="none" width="100%" height="100%" overflow="visible" style="display: block;" viewBox="0 0 13.4251 22.6465" fill="none" xmlns="http://www.w3.org/2000/svg">
<g id="&#244;&#128;&#184;&#169;" style="mix-blend-mode:plus-lighter">
<path d="M3.34695 22.6465C2.93679 22.6465 2.61452 22.5358 2.38015 22.3145C2.14577 22.0931 2.03184 21.7839 2.03835 21.3867L2.2239 10.4199C2.2239 10.2507 2.18809 10.1042 2.11648 9.98047C2.04486 9.85026 1.93093 9.7526 1.77468 9.6875C1.34499 9.4987 0.99343 9.29362 0.719993 9.07227C0.453066 8.8444 0.261009 8.55469 0.143821 8.20312C0.0266335 7.85156 -0.0189394 7.38932 0.00710227 6.81641L0.270774 0.820312C0.283795 0.605469 0.348899 0.439453 0.466087 0.322266C0.583274 0.205078 0.742779 0.146484 0.944602 0.146484C1.13991 0.146484 1.28965 0.208333 1.39382 0.332031C1.5045 0.449219 1.55984 0.61849 1.55984 0.839844L1.49148 6.66992C1.49148 7.04102 1.67377 7.22656 2.03835 7.22656C2.20111 7.22656 2.33458 7.18099 2.43874 7.08984C2.54942 6.99219 2.60476 6.86198 2.60476 6.69922L2.70241 0.664062C2.70241 0.455729 2.76101 0.292969 2.8782 0.175781C2.99538 0.0585938 3.15163 0 3.34695 0C3.54877 0 3.70502 0.0585938 3.8157 0.175781C3.93288 0.292969 3.99473 0.455729 4.00124 0.664062L4.0989 6.69922C4.0989 6.86198 4.15098 6.99219 4.25515 7.08984C4.35932 7.18099 4.49603 7.22656 4.66531 7.22656C4.82156 7.22656 4.94851 7.17773 5.04616 7.08008C5.15033 6.98242 5.20241 6.8457 5.20241 6.66992L5.13406 0.839844C5.13406 0.61849 5.18939 0.449219 5.30007 0.332031C5.41075 0.208333 5.56049 0.146484 5.74929 0.146484C6.17898 0.146484 6.40359 0.371094 6.42312 0.820312L6.69656 6.81641C6.71609 7.38932 6.66726 7.85156 6.55007 8.20312C6.43288 8.55469 6.23757 8.8444 5.96413 9.07227C5.69721 9.29362 5.3489 9.4987 4.91921 9.6875C4.76947 9.7526 4.65554 9.85026 4.57741 9.98047C4.5058 10.1042 4.46999 10.2507 4.46999 10.4199L4.66531 21.3867C4.66531 21.7839 4.54812 22.0931 4.31374 22.3145C4.07937 22.5358 3.7571 22.6465 3.34695 22.6465ZM10.9934 14.1309C10.9999 13.9551 10.9609 13.7988 10.8762 13.6621C10.7981 13.5189 10.6744 13.3854 10.5051 13.2617L9.91921 12.8711C9.67833 12.7083 9.49603 12.5033 9.37234 12.2559C9.24864 12.0085 9.18679 11.7155 9.18679 11.377V10.8984C9.18679 9.92188 9.24864 8.94531 9.37234 7.96875C9.49603 6.99219 9.67182 6.05143 9.89968 5.14648C10.1341 4.23503 10.4107 3.39844 10.7298 2.63672C11.0488 1.86849 11.4036 1.20768 11.7942 0.654297C11.957 0.426432 12.1067 0.260417 12.2434 0.15625C12.3801 0.0520833 12.5397 0 12.7219 0C12.9042 0 13.067 0.061849 13.2102 0.185547C13.3535 0.302734 13.4251 0.485026 13.4251 0.732422V21.4453C13.4251 21.8359 13.3046 22.1322 13.0637 22.334C12.8229 22.5423 12.4973 22.6465 12.0872 22.6465C11.6835 22.6465 11.3613 22.5326 11.1204 22.3047C10.8795 22.0833 10.7656 21.7611 10.7786 21.3379L10.9934 14.1309Z" fill="var(--fill-0, white)"/>
</g>
</svg>
