<svg preserveAspectRatio="none" width="100%" height="100%" overflow="visible" style="display: block;" viewBox="0 0 28 28" fill="none" xmlns="http://www.w3.org/2000/svg">
<g id="Symbol 2" style="mix-blend-mode:plus-lighter">
<g id="Symbol">
<path d="M14 18.2109C13.8997 18.2109 13.8063 18.1904 13.7197 18.1494C13.6331 18.1084 13.5534 18.0514 13.4805 17.9785L6.74023 10.958C6.67643 10.8896 6.6263 10.8145 6.58984 10.7324C6.55339 10.6504 6.53516 10.5615 6.53516 10.4658C6.53516 10.3382 6.56478 10.2243 6.62402 10.124C6.68327 10.0192 6.76302 9.93717 6.86328 9.87793C6.9681 9.81868 7.08659 9.78906 7.21875 9.78906C7.4056 9.78906 7.5651 9.85286 7.69727 9.98047L14.4238 16.9668H13.583L20.2959 9.98047C20.4326 9.85286 20.5944 9.78906 20.7812 9.78906C20.9134 9.78906 21.0296 9.81868 21.1299 9.87793C21.2347 9.93717 21.3167 10.0192 21.376 10.124C21.4352 10.2243 21.4648 10.3382 21.4648 10.4658C21.4648 10.5615 21.4466 10.6504 21.4102 10.7324C21.3737 10.8099 21.3236 10.8828 21.2598 10.9512L14.5195 17.9717C14.4512 18.0446 14.3714 18.1038 14.2803 18.1494C14.1937 18.1904 14.1003 18.2109 14 18.2109Z" fill="var(--fill-0, #737373)" style="mix-blend-mode:plus-lighter"/>
</g>
</g>
</svg>
