<svg preserveAspectRatio="none" width="100%" height="100%" overflow="visible" style="display: block;" viewBox="0 0 28 28" fill="none" xmlns="http://www.w3.org/2000/svg">
<g id="Symbol 3" style="mix-blend-mode:plus-lighter">
<g id="Symbol">
<path d="M7.90234 22.0322C7.02279 22.0322 6.3597 21.8112 5.91309 21.3691C5.46647 20.9316 5.24316 20.2754 5.24316 19.4004V8.59961C5.24316 7.72461 5.46647 7.06836 5.91309 6.63086C6.3597 6.1888 7.02279 5.96777 7.90234 5.96777H20.0908C20.9749 5.96777 21.6403 6.1888 22.0869 6.63086C22.5335 7.07292 22.7568 7.72917 22.7568 8.59961V19.4004C22.7568 20.2708 22.5335 20.9271 22.0869 21.3691C21.6403 21.8112 20.9749 22.0322 20.0908 22.0322H7.90234ZM7.80664 20.8223H20.1797C20.6126 20.8223 20.9476 20.7061 21.1846 20.4736C21.4215 20.2458 21.54 19.9062 21.54 19.4551V11.2998C21.54 10.8486 21.4215 10.5091 21.1846 10.2812C20.9476 10.0488 20.6126 9.93262 20.1797 9.93262H7.80664C7.36914 9.93262 7.03418 10.0488 6.80176 10.2812C6.56934 10.5091 6.45312 10.8486 6.45312 11.2998V19.4551C6.45312 19.9062 6.56934 20.2458 6.80176 20.4736C7.03418 20.7061 7.36914 20.8223 7.80664 20.8223ZM12.2568 13.0771C12.111 13.0771 12.0107 13.0521 11.9561 13.002C11.9059 12.9518 11.8809 12.8561 11.8809 12.7148V12.1953C11.8809 12.054 11.9059 11.9583 11.9561 11.9082C12.0107 11.8581 12.111 11.833 12.2568 11.833H12.7764C12.9222 11.833 13.0202 11.8581 13.0703 11.9082C13.125 11.9583 13.1523 12.054 13.1523 12.1953V12.7148C13.1523 12.8561 13.125 12.9518 13.0703 13.002C13.0202 13.0521 12.9222 13.0771 12.7764 13.0771H12.2568ZM15.2236 13.0771C15.0824 13.0771 14.9844 13.0521 14.9297 13.002C14.8796 12.9518 14.8545 12.8561 14.8545 12.7148V12.1953C14.8545 12.054 14.8796 11.9583 14.9297 11.9082C14.9844 11.8581 15.0824 11.833 15.2236 11.833H15.7432C15.889 11.833 15.987 11.8581 16.0371 11.9082C16.0918 11.9583 16.1191 12.054 16.1191 12.1953V12.7148C16.1191 12.8561 16.0918 12.9518 16.0371 13.002C15.987 13.0521 15.889 13.0771 15.7432 13.0771H15.2236ZM18.1973 13.0771C18.0514 13.0771 17.9512 13.0521 17.8965 13.002C17.8464 12.9518 17.8213 12.8561 17.8213 12.7148V12.1953C17.8213 12.054 17.8464 11.9583 17.8965 11.9082C17.9512 11.8581 18.0514 11.833 18.1973 11.833H18.7168C18.8581 11.833 18.9538 11.8581 19.0039 11.9082C19.0586 11.9583 19.0859 12.054 19.0859 12.1953V12.7148C19.0859 12.8561 19.0586 12.9518 19.0039 13.002C18.9538 13.0521 18.8581 13.0771 18.7168 13.0771H18.1973ZM9.29004 16.0029C9.14421 16.0029 9.04395 15.9779 8.98926 15.9277C8.93913 15.8776 8.91406 15.7819 8.91406 15.6406V15.1211C8.91406 14.9753 8.93913 14.8796 8.98926 14.834C9.04395 14.7839 9.14421 14.7588 9.29004 14.7588H9.80957C9.95085 14.7588 10.0465 14.7839 10.0967 14.834C10.1514 14.8796 10.1787 14.9753 10.1787 15.1211V15.6406C10.1787 15.7819 10.1514 15.8776 10.0967 15.9277C10.0465 15.9779 9.95085 16.0029 9.80957 16.0029H9.29004ZM12.2568 16.0029C12.111 16.0029 12.0107 15.9779 11.9561 15.9277C11.9059 15.8776 11.8809 15.7819 11.8809 15.6406V15.1211C11.8809 14.9753 11.9059 14.8796 11.9561 14.834C12.0107 14.7839 12.111 14.7588 12.2568 14.7588H12.7764C12.9222 14.7588 13.0202 14.7839 13.0703 14.834C13.125 14.8796 13.1523 14.9753 13.1523 15.1211V15.6406C13.1523 15.7819 13.125 15.8776 13.0703 15.9277C13.0202 15.9779 12.9222 16.0029 12.7764 16.0029H12.2568ZM15.2236 16.0029C15.0824 16.0029 14.9844 15.9779 14.9297 15.9277C14.8796 15.8776 14.8545 15.7819 14.8545 15.6406V15.1211C14.8545 14.9753 14.8796 14.8796 14.9297 14.834C14.9844 14.7839 15.0824 14.7588 15.2236 14.7588H15.7432C15.889 14.7588 15.987 14.7839 16.0371 14.834C16.0918 14.8796 16.1191 14.9753 16.1191 15.1211V15.6406C16.1191 15.7819 16.0918 15.8776 16.0371 15.9277C15.987 15.9779 15.889 16.0029 15.7432 16.0029H15.2236ZM18.1973 16.0029C18.0514 16.0029 17.9512 15.9779 17.8965 15.9277C17.8464 15.8776 17.8213 15.7819 17.8213 15.6406V15.1211C17.8213 14.9753 17.8464 14.8796 17.8965 14.834C17.9512 14.7839 18.0514 14.7588 18.1973 14.7588H18.7168C18.8581 14.7588 18.9538 14.7839 19.0039 14.834C19.0586 14.8796 19.0859 14.9753 19.0859 15.1211V15.6406C19.0859 15.7819 19.0586 15.8776 19.0039 15.9277C18.9538 15.9779 18.8581 16.0029 18.7168 16.0029H18.1973ZM9.29004 18.9219C9.14421 18.9219 9.04395 18.8991 8.98926 18.8535C8.93913 18.8034 8.91406 18.7054 8.91406 18.5596V18.0469C8.91406 17.901 8.93913 17.8031 8.98926 17.7529C9.04395 17.7028 9.14421 17.6777 9.29004 17.6777H9.80957C9.95085 17.6777 10.0465 17.7028 10.0967 17.7529C10.1514 17.8031 10.1787 17.901 10.1787 18.0469V18.5596C10.1787 18.7054 10.1514 18.8034 10.0967 18.8535C10.0465 18.8991 9.95085 18.9219 9.80957 18.9219H9.29004ZM12.2568 18.9219C12.111 18.9219 12.0107 18.8991 11.9561 18.8535C11.9059 18.8034 11.8809 18.7054 11.8809 18.5596V18.0469C11.8809 17.901 11.9059 17.8031 11.9561 17.7529C12.0107 17.7028 12.111 17.6777 12.2568 17.6777H12.7764C12.9222 17.6777 13.0202 17.7028 13.0703 17.7529C13.125 17.8031 13.1523 17.901 13.1523 18.0469V18.5596C13.1523 18.7054 13.125 18.8034 13.0703 18.8535C13.0202 18.8991 12.9222 18.9219 12.7764 18.9219H12.2568ZM15.2236 18.9219C15.0824 18.9219 14.9844 18.8991 14.9297 18.8535C14.8796 18.8034 14.8545 18.7054 14.8545 18.5596V18.0469C14.8545 17.901 14.8796 17.8031 14.9297 17.7529C14.9844 17.7028 15.0824 17.6777 15.2236 17.6777H15.7432C15.889 17.6777 15.987 17.7028 16.0371 17.7529C16.0918 17.8031 16.1191 17.901 16.1191 18.0469V18.5596C16.1191 18.7054 16.0918 18.8034 16.0371 18.8535C15.987 18.8991 15.889 18.9219 15.7432 18.9219H15.2236Z" fill="var(--fill-0, #BFBFBF)" style="mix-blend-mode:plus-lighter"/>
</g>
</g>
</svg>
