<svg preserveAspectRatio="none" width="100%" height="100%" overflow="visible" style="display: block;" viewBox="0 0 28 28" fill="none" xmlns="http://www.w3.org/2000/svg">
<g id="Symbol 3" style="mix-blend-mode:plus-lighter">
<g id="Symbol">
<path d="M7.61865 15.5962C7.32243 15.5962 7.05355 15.5256 6.81201 15.3843C6.57048 15.2384 6.37679 15.0448 6.23096 14.8032C6.08968 14.5617 6.01904 14.2951 6.01904 14.0034C6.01904 13.7072 6.08968 13.4383 6.23096 13.1968C6.37679 12.9552 6.57048 12.7638 6.81201 12.6226C7.05355 12.4767 7.32243 12.4038 7.61865 12.4038C7.91032 12.4038 8.17692 12.4767 8.41846 12.6226C8.66455 12.7638 8.85824 12.9552 8.99951 13.1968C9.14535 13.4383 9.21826 13.7072 9.21826 14.0034C9.21826 14.2951 9.14535 14.5617 8.99951 14.8032C8.85824 15.0448 8.66455 15.2384 8.41846 15.3843C8.17692 15.5256 7.91032 15.5962 7.61865 15.5962ZM13.9966 15.5962C13.7049 15.5962 13.4383 15.5256 13.1968 15.3843C12.9552 15.2384 12.7616 15.0448 12.6157 14.8032C12.4744 14.5617 12.4038 14.2951 12.4038 14.0034C12.4038 13.7072 12.4744 13.4383 12.6157 13.1968C12.7616 12.9552 12.9552 12.7638 13.1968 12.6226C13.4383 12.4767 13.7049 12.4038 13.9966 12.4038C14.2928 12.4038 14.5617 12.4767 14.8032 12.6226C15.0448 12.7638 15.2362 12.9552 15.3774 13.1968C15.5233 13.4383 15.5962 13.7072 15.5962 14.0034C15.5962 14.2951 15.5233 14.5617 15.3774 14.8032C15.2362 15.0448 15.0448 15.2384 14.8032 15.3843C14.5617 15.5256 14.2928 15.5962 13.9966 15.5962ZM20.3813 15.5962C20.0897 15.5962 19.8208 15.5256 19.5747 15.3843C19.3332 15.2384 19.1395 15.0448 18.9937 14.8032C18.8524 14.5617 18.7817 14.2951 18.7817 14.0034C18.7817 13.7072 18.8524 13.4383 18.9937 13.1968C19.1395 12.9552 19.3332 12.7638 19.5747 12.6226C19.8208 12.4767 20.0897 12.4038 20.3813 12.4038C20.6776 12.4038 20.9465 12.4767 21.188 12.6226C21.4295 12.7638 21.6209 12.9552 21.7622 13.1968C21.908 13.4383 21.981 13.7072 21.981 14.0034C21.981 14.2951 21.908 14.5617 21.7622 14.8032C21.6209 15.0448 21.4295 15.2384 21.188 15.3843C20.9465 15.5256 20.6776 15.5962 20.3813 15.5962Z" fill="var(--fill-0, #BFBFBF)" style="mix-blend-mode:plus-lighter"/>
</g>
</g>
</svg>
