<svg preserveAspectRatio="none" width="100%" height="100%" overflow="visible" style="display: block;" viewBox="0 0 36 36" fill="none" xmlns="http://www.w3.org/2000/svg">
<g id="Symbol 2" style="mix-blend-mode:plus-lighter">
<g id="Symbol">
<path d="M16.9219 30.2461C16.6172 30.2461 16.3594 30.1602 16.1484 29.9883C15.9453 29.8242 15.8047 29.5898 15.7266 29.2852L15.1172 26.707C14.8906 26.6289 14.668 26.5469 14.4492 26.4609C14.2305 26.375 14.0234 26.2852 13.8281 26.1914L11.5781 27.5742C11.3203 27.7305 11.0547 27.7969 10.7812 27.7734C10.5156 27.75 10.2773 27.6328 10.0664 27.4219L8.56641 25.9219C8.35547 25.7109 8.23438 25.4648 8.20312 25.1836C8.17969 24.9023 8.25391 24.6367 8.42578 24.3867L9.79688 22.1484C9.70312 21.9453 9.61328 21.7383 9.52734 21.5273C9.44141 21.3164 9.36719 21.1055 9.30469 20.8945L6.70312 20.2734C6.39844 20.2031 6.16406 20.0664 6 19.8633C5.83594 19.6523 5.75391 19.3945 5.75391 19.0898V16.9688C5.75391 16.6719 5.83594 16.4219 6 16.2188C6.16406 16.0078 6.39844 15.8672 6.70312 15.7969L9.28125 15.1758C9.35156 14.9336 9.42969 14.707 9.51562 14.4961C9.60938 14.2852 9.69531 14.0859 9.77344 13.8984L8.40234 11.625C8.23828 11.3672 8.16406 11.1055 8.17969 10.8398C8.20312 10.5742 8.32422 10.3359 8.54297 10.125L10.0664 8.61328C10.2773 8.40234 10.5117 8.28125 10.7695 8.25C11.0273 8.21875 11.2852 8.28125 11.543 8.4375L13.8164 9.84375C14.0117 9.74219 14.2188 9.64844 14.4375 9.5625C14.6641 9.46875 14.8906 9.38281 15.1172 9.30469L15.7266 6.71484C15.8047 6.41797 15.9453 6.18359 16.1484 6.01172C16.3594 5.83984 16.6172 5.75391 16.9219 5.75391H19.0781C19.3828 5.75391 19.6367 5.83984 19.8398 6.01172C20.0508 6.18359 20.1914 6.41797 20.2617 6.71484L20.8711 9.32812C21.1133 9.40625 21.3398 9.48828 21.5508 9.57422C21.7695 9.66016 21.9727 9.75391 22.1602 9.85547L24.457 8.4375C24.707 8.28125 24.957 8.22266 25.207 8.26172C25.4648 8.30078 25.7031 8.41797 25.9219 8.61328L27.457 10.125C27.6758 10.3359 27.793 10.5742 27.8086 10.8398C27.8242 11.1055 27.7539 11.3672 27.5977 11.625L26.2148 13.8984C26.293 14.0859 26.375 14.2852 26.4609 14.4961C26.5547 14.707 26.6406 14.9336 26.7188 15.1758L29.2969 15.7969C29.5938 15.8672 29.8242 16.0078 29.9883 16.2188C30.1602 16.4219 30.2461 16.6719 30.2461 16.9688V19.0898C30.2461 19.3945 30.1602 19.6523 29.9883 19.8633C29.8242 20.0664 29.5938 20.2031 29.2969 20.2734L26.6953 20.8945C26.625 21.1055 26.5469 21.3164 26.4609 21.5273C26.3828 21.7383 26.293 21.9453 26.1914 22.1484L27.5742 24.3867C27.7461 24.6367 27.8164 24.9023 27.7852 25.1836C27.7617 25.4648 27.6445 25.7109 27.4336 25.9219L25.9219 27.4219C25.7109 27.6328 25.4688 27.75 25.1953 27.7734C24.9297 27.7969 24.6719 27.7305 24.4219 27.5742L22.1602 26.1914C21.9648 26.2852 21.7578 26.375 21.5391 26.4609C21.3203 26.5469 21.0977 26.6289 20.8711 26.707L20.2617 29.2852C20.1914 29.5898 20.0508 29.8242 19.8398 29.9883C19.6367 30.1602 19.3828 30.2461 19.0781 30.2461H16.9219ZM18 22.1367C18.7578 22.1367 19.4492 21.9531 20.0742 21.5859C20.6992 21.2109 21.1992 20.7109 21.5742 20.0859C21.9492 19.4531 22.1367 18.7578 22.1367 18C22.1367 17.2422 21.9492 16.5508 21.5742 15.9258C21.1992 15.293 20.6992 14.793 20.0742 14.4258C19.4492 14.0508 18.7578 13.8633 18 13.8633C17.2344 13.8633 16.5391 14.0508 15.9141 14.4258C15.2891 14.793 14.7891 15.293 14.4141 15.9258C14.0469 16.5508 13.8633 17.2422 13.8633 18C13.8633 18.7578 14.0469 19.4531 14.4141 20.0859C14.7891 20.7109 15.2891 21.2109 15.9141 21.5859C16.5391 21.9531 17.2344 22.1367 18 22.1367Z" fill="var(--fill-0, #BFBFBF)" style="mix-blend-mode:plus-lighter"/>
</g>
</g>
</svg>
