<svg width="32" height="32" viewBox="0 0 32 32" fill="none" xmlns="http://www.w3.org/2000/svg">
<g id="Symbol 2" style="mix-blend-mode:plus-lighter">
<g id="Symbol">
<path d="M8.28223 11.7788C8.0817 11.7788 7.89941 11.731 7.73535 11.6353C7.57585 11.5396 7.44824 11.4119 7.35254 11.2524C7.25683 11.0884 7.20898 10.9061 7.20898 10.7056C7.20898 10.5096 7.25683 10.3296 7.35254 10.1655C7.44824 10.0015 7.57585 9.87158 7.73535 9.77588C7.89941 9.68018 8.0817 9.63233 8.28223 9.63233C8.47819 9.63233 8.6582 9.68018 8.82226 9.77588C8.98633 9.87158 9.11621 10.0015 9.21191 10.1655C9.30762 10.3296 9.35547 10.5096 9.35547 10.7056C9.35547 10.9061 9.30762 11.0884 9.21191 11.2524C9.11621 11.4119 8.98633 11.5396 8.82226 11.6353C8.6582 11.731 8.47819 11.7788 8.28223 11.7788ZM12.083 11.314C11.9144 11.314 11.7708 11.257 11.6523 11.1431C11.5384 11.0246 11.4814 10.8787 11.4814 10.7056C11.4814 10.5369 11.5384 10.3957 11.6523 10.2817C11.7708 10.1633 11.9144 10.104 12.083 10.104L24.1758 10.104C24.349 10.104 24.4948 10.1633 24.6133 10.2817C24.7318 10.3957 24.791 10.5369 24.791 10.7056C24.791 10.8787 24.7318 11.0246 24.6133 11.1431C24.4948 11.257 24.349 11.314 24.1758 11.314L12.083 11.314ZM8.28223 17.0767C8.0817 17.0767 7.89941 17.0288 7.73535 16.9331C7.57585 16.8328 7.44824 16.703 7.35254 16.5435C7.25683 16.3794 7.20898 16.1994 7.20898 16.0034C7.20898 15.8029 7.25683 15.6229 7.35254 15.4634C7.44824 15.2993 7.57585 15.1694 7.73535 15.0737C7.89941 14.978 8.0817 14.9302 8.28223 14.9302C8.47819 14.9302 8.6582 14.978 8.82226 15.0737C8.98633 15.1694 9.11621 15.2993 9.21191 15.4634C9.30762 15.6229 9.35547 15.8029 9.35547 16.0034C9.35547 16.1994 9.30762 16.3794 9.21191 16.5435C9.11621 16.703 8.98633 16.8328 8.82226 16.9331C8.6582 17.0288 8.47819 17.0767 8.28223 17.0767ZM12.083 16.605C11.9144 16.605 11.7708 16.548 11.6523 16.4341C11.5384 16.3156 11.4814 16.172 11.4814 16.0034C11.4814 15.8302 11.5384 15.6867 11.6523 15.5728C11.7708 15.4543 11.9144 15.395 12.083 15.395L24.1758 15.395C24.349 15.395 24.4948 15.4543 24.6133 15.5728C24.7318 15.6867 24.791 15.8302 24.791 16.0034C24.791 16.172 24.7318 16.3156 24.6133 16.4341C24.4948 16.548 24.349 16.605 24.1758 16.605L12.083 16.605ZM8.28223 22.3677C8.0817 22.3677 7.89941 22.3198 7.73535 22.2241C7.57585 22.1284 7.44824 21.9985 7.35254 21.8345C7.25683 21.675 7.20898 21.495 7.20898 21.2944C7.20898 21.0985 7.25683 20.9207 7.35254 20.7612C7.44824 20.5972 7.57585 20.4673 7.73535 20.3716C7.89941 20.2713 8.0817 20.2212 8.28223 20.2212C8.47819 20.2212 8.6582 20.2713 8.82226 20.3716C8.98633 20.4673 9.11621 20.5972 9.21191 20.7612C9.30762 20.9207 9.35547 21.0985 9.35547 21.2944C9.35547 21.495 9.30762 21.675 9.21191 21.8345C9.11621 21.9985 8.98633 22.1284 8.82226 22.2241C8.6582 22.3198 8.47819 22.3677 8.28223 22.3677ZM12.083 21.9028C11.9144 21.9028 11.7708 21.8436 11.6523 21.7251C11.5384 21.6112 11.4814 21.4676 11.4814 21.2944C11.4814 21.1258 11.5384 20.9845 11.6523 20.8706C11.7708 20.7521 11.9144 20.6929 12.083 20.6929L24.1758 20.6929C24.349 20.6929 24.4948 20.7521 24.6133 20.8706C24.7318 20.9845 24.791 21.1258 24.791 21.2944C24.791 21.4676 24.7318 21.6112 24.6133 21.7251C24.4948 21.8436 24.349 21.9028 24.1758 21.9028L12.083 21.9028Z" fill="var(--fill-0, white)" style="mix-blend-mode:plus-lighter"/>
</g>
</g>
</svg>
