<svg width="14" height="21" viewBox="0 0 13.9746 20.8984" fill="none" xmlns="http://www.w3.org/2000/svg">
<g id="Symbol 1" style="mix-blend-mode:plus-lighter">
<path d="M6.99219 17.168C5.95052 17.168 5 17.0052 4.14062 16.6797C3.28776 16.3477 2.55208 15.8789 1.93359 15.2734C1.3151 14.6615 0.836589 13.9388 0.498047 13.1055C0.166016 12.2656 0 11.3379 0 10.3223V8.33984C0 8.13802 0.0716146 7.96549 0.214844 7.82227C0.358073 7.67904 0.530599 7.60742 0.732422 7.60742C0.940755 7.60742 1.11654 7.67904 1.25977 7.82227C1.40299 7.96549 1.47461 8.13802 1.47461 8.33984V10.2637C1.47461 11.3704 1.70247 12.3405 2.1582 13.1738C2.61393 14.0072 3.25521 14.6549 4.08203 15.1172C4.90885 15.5729 5.87891 15.8008 6.99219 15.8008C8.10547 15.8008 9.07227 15.5729 9.89258 15.1172C10.7194 14.6549 11.3607 14.0072 11.8164 13.1738C12.2721 12.3405 12.5 11.3704 12.5 10.2637V8.33984C12.5 8.13802 12.5716 7.96549 12.7148 7.82227C12.8581 7.67904 13.0339 7.60742 13.2422 7.60742C13.444 7.60742 13.6165 7.67904 13.7598 7.82227C13.903 7.96549 13.9746 8.13802 13.9746 8.33984V10.3223C13.9746 11.3379 13.8053 12.2656 13.4668 13.1055C13.1348 13.9388 12.6595 14.6615 12.041 15.2734C11.4225 15.8789 10.6836 16.3477 9.82422 16.6797C8.97135 17.0052 8.02734 17.168 6.99219 17.168ZM3.4375 9.9707V3.82812C3.4375 3.07943 3.58724 2.41862 3.88672 1.8457C4.1862 1.26628 4.60286 0.813802 5.13672 0.488281C5.67057 0.16276 6.28906 0 6.99219 0C7.6888 0 8.30404 0.16276 8.83789 0.488281C9.37174 0.813802 9.78841 1.26628 10.0879 1.8457C10.3874 2.41862 10.5371 3.07943 10.5371 3.82812V9.9707C10.5371 10.7194 10.3874 11.3835 10.0879 11.9629C9.78841 12.5358 9.37174 12.985 8.83789 13.3105C8.30404 13.6361 7.6888 13.7988 6.99219 13.7988C6.28906 13.7988 5.67057 13.6361 5.13672 13.3105C4.60286 12.985 4.1862 12.5358 3.88672 11.9629C3.58724 11.3835 3.4375 10.7194 3.4375 9.9707ZM4.91211 9.9707C4.91211 10.6934 5.10091 11.2695 5.47852 11.6992C5.86263 12.1289 6.36719 12.3438 6.99219 12.3438C7.61719 12.3438 8.11849 12.1289 8.49609 11.6992C8.8737 11.2695 9.0625 10.6934 9.0625 9.9707V3.82812C9.0625 3.10547 8.8737 2.5293 8.49609 2.09961C8.11849 1.66992 7.61719 1.45508 6.99219 1.45508C6.36719 1.45508 5.86263 1.66992 5.47852 2.09961C5.10091 2.5293 4.91211 3.10547 4.91211 3.82812V9.9707ZM2.62695 20.8984C2.41862 20.8984 2.24284 20.8268 2.09961 20.6836C1.95638 20.5404 1.88477 20.3678 1.88477 20.166C1.88477 19.9577 1.95638 19.7819 2.09961 19.6387C2.24284 19.4954 2.41862 19.4238 2.62695 19.4238H11.3477C11.556 19.4238 11.7318 19.4954 11.875 19.6387C12.0182 19.7819 12.0898 19.9577 12.0898 20.166C12.0898 20.3678 12.0182 20.5404 11.875 20.6836C11.7318 20.8268 11.556 20.8984 11.3477 20.8984H2.62695ZM6.99219 20.5762C6.78385 20.5762 6.60807 20.5046 6.46484 20.3613C6.32161 20.2181 6.25 20.0423 6.25 19.834V16.8359C6.25 16.6276 6.32161 16.4518 6.46484 16.3086C6.60807 16.1654 6.78385 16.0938 6.99219 16.0938C7.19401 16.0938 7.36654 16.1654 7.50977 16.3086C7.65299 16.4518 7.72461 16.6276 7.72461 16.8359V19.834C7.72461 20.0423 7.65299 20.2181 7.50977 20.3613C7.36654 20.5046 7.19401 20.5762 6.99219 20.5762Z" fill="var(--fill-0, #EBEBF5)" fill-opacity="0.3"/>
</g>
</svg>
