<svg width="80" height="80" viewBox="0 0 80 80" fill="none" xmlns="http://www.w3.org/2000/svg">
<g id="Frame 76">
<path id="&#244;&#128;&#134;&#191;" d="M37.7896 21.728C37.342 21.728 37.0622 21.426 37.0062 21.0142C36.2788 16.5937 36.3067 16.4839 31.5503 15.6602C31.0746 15.5779 30.7948 15.3033 30.7948 14.864C30.7948 14.4522 31.0746 14.1776 31.4943 14.0952C36.3347 13.1892 36.3067 13.0794 37.0062 8.74131C37.0622 8.30202 37.342 8 37.7896 8C38.2373 8 38.5171 8.30202 38.601 8.71386C39.3285 13.1892 39.2725 13.3265 44.085 14.0952C44.5047 14.1502 44.8124 14.4522 44.8124 14.864C44.8124 15.3033 44.5326 15.5779 44.085 15.6602C39.2725 16.5663 39.3565 16.6486 38.601 21.0416C38.5171 21.426 38.2373 21.728 37.7896 21.728ZM24.1917 41.4414C23.5202 41.4414 23.0166 40.9747 22.9326 40.2608C22.0373 33.0948 21.7855 32.8477 14.2591 31.722C13.4756 31.6122 13 31.1729 13 30.4865C13 29.8275 13.4756 29.3608 14.1192 29.251C21.7855 27.8782 22.0373 27.8507 22.9326 20.7121C23.0166 19.9983 23.5202 19.5315 24.1917 19.5315C24.8632 19.5315 25.3668 19.9983 25.4508 20.6847C26.4021 28.0429 26.6259 28.2351 34.2642 29.251C34.9078 29.3333 35.3834 29.8275 35.3834 30.4865C35.3834 31.1454 34.9078 31.6122 34.2642 31.722C26.5699 33.0948 26.4021 33.1497 25.4508 40.3432C25.3668 40.9747 24.8352 41.4414 24.1917 41.4414ZM44.2249 72C43.1337 72 42.2943 71.2312 42.0984 70.1055C39.7762 55.5264 37.9016 53.7143 23.4363 51.7649C22.2611 51.6002 21.4497 50.749 21.4497 49.6508C21.4497 48.5526 22.2891 47.674 23.4642 47.5367C37.9575 45.9442 40.028 43.7752 42.0984 29.2235C42.2663 28.0978 43.1337 27.329 44.2249 27.329C45.2881 27.329 46.1554 28.0978 46.3513 29.2235C48.5896 43.7752 50.5202 45.7795 65.0135 47.5367C66.1606 47.7014 67 48.58 67 49.6508C67 50.749 66.1606 51.6551 64.9855 51.7649C50.4642 53.3848 48.3938 55.5264 46.3513 70.1055C46.1554 71.2312 45.3161 72 44.2249 72Z" fill="url(#paint0_radial_0_415)"/>
</g>
<defs>
<radialGradient id="paint0_radial_0_415" cx="0" cy="0" r="1" gradientUnits="userSpaceOnUse" gradientTransform="translate(40 19.6055) rotate(90) scale(57.32 48.3638)">
<stop stop-color="#C7FFF2"/>
<stop offset="1" stop-color="#0088FF"/>
</radialGradient>
</defs>
</svg>
