<svg preserveAspectRatio="none" width="100%" height="100%" overflow="visible" style="display: block;" viewBox="0 0 32 32" fill="none" xmlns="http://www.w3.org/2000/svg">
<g id="Symbol 2" style="mix-blend-mode:plus-lighter">
<g id="Symbol">
<path d="M16 20.2109C15.8997 20.2109 15.8063 20.1904 15.7197 20.1494C15.6331 20.1084 15.5534 20.0514 15.4805 19.9785L8.74023 12.958C8.67643 12.8896 8.6263 12.8145 8.58984 12.7324C8.55338 12.6504 8.53515 12.5615 8.53515 12.4658C8.53515 12.3382 8.56478 12.2243 8.62402 12.124C8.68327 12.0192 8.76302 11.9372 8.86328 11.8779C8.9681 11.8187 9.08659 11.7891 9.21875 11.7891C9.4056 11.7891 9.5651 11.8529 9.69726 11.9805L16.4238 18.9668L15.583 18.9668L22.2959 11.9805C22.4326 11.8529 22.5944 11.7891 22.7812 11.7891C22.9134 11.7891 23.0296 11.8187 23.1299 11.8779C23.2347 11.9372 23.3167 12.0192 23.376 12.124C23.4352 12.2243 23.4648 12.3382 23.4648 12.4658C23.4648 12.5615 23.4466 12.6504 23.4102 12.7324C23.3737 12.8099 23.3236 12.8828 23.2598 12.9512L16.5195 19.9717C16.4512 20.0446 16.3714 20.1038 16.2803 20.1494C16.1937 20.1904 16.1003 20.2109 16 20.2109Z" fill="var(--fill-0, white)" style="mix-blend-mode:plus-lighter"/>
</g>
</g>
</svg>
