<svg preserveAspectRatio="none" width="100%" height="100%" overflow="visible" style="display: block;" viewBox="0 0 23.2121 18.8161" fill="none" xmlns="http://www.w3.org/2000/svg">
<path id="Vector" d="M18.7022 0C21.1923 0 23.2121 2.01615 23.2121 4.50625V14.3062C23.2085 16.7964 21.1923 18.8161 18.7022 18.8161H10.0142C8.79648 18.8125 7.62982 18.3203 6.78034 17.449L0.746485 11.2474C-0.248828 10.2229 -0.248828 8.58958 0.746485 7.5651L6.78034 1.36354C7.62982 0.492188 8.79648 0 10.0142 0H18.7022ZM10.0142 1.54948C9.21576 1.54948 8.45013 1.87031 7.89232 2.44271L1.85846 8.64427C1.44648 9.07083 1.44648 9.74531 1.85846 10.1682L7.89232 16.3698C8.45013 16.9422 9.21576 17.263 10.0142 17.2667H18.7022C20.3355 17.2667 21.659 15.9396 21.6626 14.3062V4.50625C21.6626 2.87292 20.3355 1.54948 18.7022 1.54948H10.0142ZM16.7553 5.59271C17.0579 5.2901 17.5465 5.2901 17.8491 5.59271C18.1517 5.89531 18.1517 6.38385 17.8491 6.68646L15.1293 9.40625L17.8491 12.126C18.1517 12.4286 18.1517 12.9172 17.8491 13.2198C17.5465 13.5224 17.0579 13.5224 16.7553 13.2198L14.0355 10.5036L11.3158 13.2198C11.0132 13.5224 10.5246 13.5224 10.222 13.2198C9.9194 12.9172 9.9194 12.4286 10.222 12.126L12.9382 9.40625L10.222 6.68646C9.9194 6.38385 9.9194 5.89531 10.222 5.59271C10.5246 5.2901 11.0132 5.2901 11.3158 5.59271L14.0355 8.3125L16.7553 5.59271Z" fill="var(--fill-0, black)"/>
</svg>
