<svg preserveAspectRatio="none" width="100%" height="100%" overflow="visible" style="display: block;" viewBox="0 0 24.668 24.668" fill="none" xmlns="http://www.w3.org/2000/svg">
<path id="Symbol" d="M13.4766 23.5195C13.4766 23.7305 13.4258 23.9219 13.3242 24.0938C13.2227 24.2656 13.082 24.4023 12.9023 24.5039C12.7305 24.6133 12.5391 24.668 12.3281 24.668C12.125 24.668 11.9336 24.6133 11.7539 24.5039C11.582 24.4023 11.4453 24.2656 11.3438 24.0938C11.2422 23.9219 11.1914 23.7305 11.1914 23.5195V1.14844C11.1914 0.945312 11.2422 0.757812 11.3438 0.585938C11.4453 0.40625 11.582 0.265625 11.7539 0.164062C11.9336 0.0546875 12.125 0 12.3281 0C12.5391 0 12.7305 0.0546875 12.9023 0.164062C13.082 0.265625 13.2227 0.40625 13.3242 0.585938C13.4258 0.757812 13.4766 0.945312 13.4766 1.14844V23.5195ZM1.14844 13.4766C0.9375 13.4766 0.746094 13.4258 0.574219 13.3242C0.402344 13.2227 0.261719 13.0859 0.152344 12.9141C0.0507812 12.7344 0 12.543 0 12.3398C0 12.1289 0.0507812 11.9375 0.152344 11.7656C0.261719 11.5938 0.402344 11.457 0.574219 11.3555C0.746094 11.2461 0.9375 11.1914 1.14844 11.1914H23.5195C23.7305 11.1914 23.9219 11.2461 24.0938 11.3555C24.2656 11.457 24.4023 11.5938 24.5039 11.7656C24.6133 11.9375 24.668 12.1289 24.668 12.3398C24.668 12.543 24.6133 12.7344 24.5039 12.9141C24.4023 13.0859 24.2656 13.2227 24.0938 13.3242C23.9219 13.4258 23.7305 13.4766 23.5195 13.4766H1.14844Z" fill="var(--fill-0, #BFBFBF)" style="mix-blend-mode:plus-lighter"/>
</svg>
