<svg preserveAspectRatio="none" width="100%" height="100%" overflow="visible" style="display: block;" viewBox="0 0 19.8828 19.7266" fill="none" xmlns="http://www.w3.org/2000/svg">
<g id="&#244;&#131;&#129;&#148;" style="mix-blend-mode:plus-lighter">
<path d="M3.25195 2.46094C3.8444 1.92057 4.50195 1.45508 5.22461 1.06445C5.94727 0.673828 6.71224 0.380859 7.51953 0.185547C7.15495 0.608724 6.81966 1.14583 6.51367 1.79688C6.20768 2.44141 5.94727 3.18034 5.73242 4.01367C5.20508 3.83138 4.73307 3.61003 4.31641 3.34961C3.89974 3.08919 3.54492 2.79297 3.25195 2.46094ZM6.82617 4.32617C7.11263 3.14128 7.47721 2.17448 7.91992 1.42578C8.36914 0.677083 8.85742 0.201823 9.38477 0V4.61914C8.91602 4.60612 8.4668 4.57357 8.03711 4.52148C7.61393 4.4694 7.21029 4.4043 6.82617 4.32617ZM10.5078 4.61914V0C11.0286 0.201823 11.5104 0.677083 11.9531 1.42578C12.4023 2.17448 12.7702 3.14128 13.0566 4.32617C12.666 4.4043 12.2591 4.4694 11.8359 4.52148C11.4128 4.57357 10.9701 4.60612 10.5078 4.61914ZM14.1504 4.01367C13.9355 3.18034 13.6751 2.44141 13.3691 1.79688C13.0632 1.14583 12.7246 0.608724 12.3535 0.185547C13.1673 0.380859 13.9323 0.673828 14.6484 1.06445C15.3711 1.45508 16.0286 1.92057 16.6211 2.46094C16.3346 2.79297 15.9831 3.08919 15.5664 3.34961C15.1497 3.61003 14.6777 3.83138 14.1504 4.01367ZM0 9.27734C0.0651042 8.11198 0.31901 7.01172 0.761719 5.97656C1.20443 4.9349 1.79362 4.00391 2.5293 3.18359C2.78971 3.58073 3.17708 3.94206 3.69141 4.26758C4.20573 4.5931 4.8112 4.86979 5.50781 5.09766C5.38411 5.70964 5.28646 6.36719 5.21484 7.07031C5.14974 7.77344 5.11068 8.50911 5.09766 9.27734H0ZM6.25 9.27734C6.26302 8.57422 6.29883 7.89714 6.35742 7.24609C6.41602 6.59505 6.50065 5.97982 6.61133 5.40039C7.03451 5.49805 7.47721 5.57617 7.93945 5.63477C8.4082 5.69336 8.88997 5.72917 9.38477 5.74219V9.27734H6.25ZM10.5078 9.27734V5.74219C10.9961 5.72917 11.4714 5.69336 11.9336 5.63477C12.3958 5.57617 12.8418 5.49805 13.2715 5.40039C13.3822 5.97982 13.4668 6.59505 13.5254 7.24609C13.584 7.89714 13.6198 8.57422 13.6328 9.27734H10.5078ZM14.7949 9.27734C14.7754 8.50911 14.7298 7.77344 14.6582 7.07031C14.5866 6.36719 14.4922 5.70964 14.375 5.09766C15.0716 4.86979 15.6771 4.5931 16.1914 4.26758C16.7057 3.94206 17.0931 3.58073 17.3535 3.18359C18.0892 4.00391 18.6784 4.9349 19.1211 5.97656C19.5638 7.01172 19.8177 8.11198 19.8828 9.27734H14.7949ZM2.54883 16.5137C1.80664 15.6999 1.21094 14.7721 0.761719 13.7305C0.31901 12.6888 0.0651042 11.5788 0 10.4004H5.08789C5.10742 11.1816 5.14974 11.9271 5.21484 12.6367C5.28646 13.3464 5.38411 14.0137 5.50781 14.6387C4.81771 14.86 4.21875 15.1335 3.71094 15.459C3.20312 15.778 2.81576 16.1296 2.54883 16.5137ZM6.61133 14.3262C6.50716 13.7467 6.42253 13.1283 6.35742 12.4707C6.29232 11.8066 6.25326 11.1165 6.24023 10.4004H9.38477V13.9941C8.4082 14.0267 7.48372 14.1374 6.61133 14.3262ZM10.5078 13.9941V10.4004H13.6426C13.6296 11.1165 13.5905 11.8066 13.5254 12.4707C13.4603 13.1283 13.3724 13.7467 13.2617 14.3262C12.3958 14.1374 11.4779 14.0267 10.5078 13.9941ZM14.375 14.6387C14.4922 14.0137 14.5866 13.3464 14.6582 12.6367C14.7298 11.9271 14.7754 11.1816 14.7949 10.4004H19.8828C19.8177 11.5788 19.5605 12.6888 19.1113 13.7305C18.6621 14.7721 18.0697 15.6999 17.334 16.5137C17.0671 16.1296 16.6797 15.778 16.1719 15.459C15.6641 15.1335 15.0651 14.86 14.375 14.6387ZM7.49023 19.4922C6.69596 19.2969 5.94076 19.0072 5.22461 18.623C4.51497 18.2389 3.86719 17.7767 3.28125 17.2363C3.86068 16.5918 4.67773 16.0872 5.73242 15.7227C5.94727 16.543 6.20443 17.2689 6.50391 17.9004C6.80339 18.5384 7.13216 19.069 7.49023 19.4922ZM9.38477 19.7266C8.85742 19.5247 8.36914 19.0462 7.91992 18.291C7.47721 17.5423 7.11589 16.582 6.83594 15.4102C7.61719 15.2344 8.4668 15.1367 9.38477 15.1172V19.7266ZM10.5078 19.7266V15.1172C10.9635 15.1302 11.403 15.1628 11.8262 15.2148C12.2559 15.2604 12.6628 15.3255 13.0469 15.4102C12.7604 16.582 12.3958 17.5423 11.9531 18.291C11.5104 19.0462 11.0286 19.5247 10.5078 19.7266ZM12.3926 19.4922C12.7507 19.069 13.0794 18.5384 13.3789 17.9004C13.6784 17.2689 13.9355 16.543 14.1504 15.7227C15.1986 16.0872 16.0189 16.5918 16.6113 17.2363C16.0189 17.7767 15.3646 18.2389 14.6484 18.623C13.9388 19.0072 13.1868 19.2969 12.3926 19.4922Z" fill="var(--fill-0, white)"/>
</g>
</svg>
