<svg preserveAspectRatio="none" width="100%" height="100%" overflow="visible" style="display: block;" viewBox="0 0 28 28" fill="none" xmlns="http://www.w3.org/2000/svg">
<g id="Symbol 3" style="mix-blend-mode:plus-lighter">
<g id="Symbol">
<path d="M7.26318 18.7441H9.42334C9.68311 18.7441 9.89274 18.6667 10.0522 18.5117C10.2118 18.3522 10.2915 18.1471 10.2915 17.8965V16.2627C10.2915 16.0166 10.2118 15.8138 10.0522 15.6543C9.89274 15.4948 9.68311 15.415 9.42334 15.415H7.26318C7.00342 15.415 6.79378 15.4948 6.63428 15.6543C6.47477 15.8138 6.39502 16.0166 6.39502 16.2627V17.8965C6.39502 18.1471 6.47477 18.3522 6.63428 18.5117C6.79378 18.6667 7.00342 18.7441 7.26318 18.7441ZM3.7085 11.9697H24.2915V9.9873H3.7085V11.9697ZM6.36768 21.4307C5.48812 21.4307 4.82503 21.2096 4.37842 20.7676C3.9318 20.3255 3.7085 19.667 3.7085 18.792V9.20801C3.7085 8.33301 3.9318 7.67448 4.37842 7.23242C4.82503 6.79036 5.48812 6.56934 6.36768 6.56934H21.6255C22.5096 6.56934 23.175 6.79264 23.6216 7.23926C24.0682 7.68132 24.2915 8.33757 24.2915 9.20801V18.792C24.2915 19.6624 24.0682 20.3187 23.6216 20.7607C23.175 21.2074 22.5096 21.4307 21.6255 21.4307H6.36768Z" fill="var(--fill-0, #BFBFBF)" style="mix-blend-mode:plus-lighter"/>
</g>
</g>
</svg>
