<svg preserveAspectRatio="none" width="100%" height="100%" overflow="visible" style="display: block;" viewBox="0 0 36 36" fill="none" xmlns="http://www.w3.org/2000/svg">
<g id="Symbol 3" style="mix-blend-mode:plus-lighter">
<g id="Symbol">
<path d="M18 27.4727C17.8958 27.4727 17.7943 27.4492 17.6953 27.4023C17.6016 27.3607 17.513 27.2982 17.4297 27.2148L10.6719 20.457C10.5156 20.2956 10.4375 20.1133 10.4375 19.9102C10.4375 19.6966 10.5078 19.5195 10.6484 19.3789C10.7891 19.2331 10.9635 19.1602 11.1719 19.1602C11.276 19.1602 11.375 19.1784 11.4688 19.2148C11.5625 19.2513 11.6432 19.3008 11.7109 19.3633L14.4844 22.1055L17.9922 25.918L21.5156 22.1055L24.2891 19.3633C24.3568 19.3008 24.4375 19.2513 24.5312 19.2148C24.625 19.1784 24.724 19.1602 24.8281 19.1602C25.0365 19.1602 25.2109 19.2331 25.3516 19.3789C25.4922 19.5195 25.5625 19.6966 25.5625 19.9102C25.5625 20.1133 25.4844 20.2956 25.3281 20.457L18.5703 27.2148C18.487 27.2982 18.3958 27.3607 18.2969 27.4023C18.2031 27.4492 18.1042 27.4727 18 27.4727ZM18 26.5273C17.8021 26.5273 17.6406 26.4648 17.5156 26.3398C17.3906 26.2148 17.3281 26.0534 17.3281 25.8555L17.2422 23.0195V9.27734C17.2422 9.05859 17.3125 8.87891 17.4531 8.73828C17.599 8.59766 17.7812 8.52734 18 8.52734C18.2188 8.52734 18.3984 8.59766 18.5391 8.73828C18.6849 8.87891 18.7578 9.05859 18.7578 9.27734V23.0195L18.6719 25.8477C18.6719 26.0456 18.6094 26.207 18.4844 26.332C18.3594 26.4622 18.1979 26.5273 18 26.5273Z" fill="var(--fill-0, #BFBFBF)" style="mix-blend-mode:plus-lighter"/>
</g>
</g>
</svg>
