<svg preserveAspectRatio="none" width="100%" height="100%" overflow="visible" style="display: block;" viewBox="0 0 23.3555 21.5742" fill="none" xmlns="http://www.w3.org/2000/svg">
<g id="&#244;&#128;&#137;&#137;" style="mix-blend-mode:plus-lighter">
<path d="M3.67969 21.5742C2.45312 21.5742 1.53125 21.2695 0.914062 20.6602C0.304688 20.0586 0 19.1523 0 17.9414V3.63281C0 2.42188 0.304688 1.51562 0.914062 0.914062C1.53125 0.304688 2.45312 0 3.67969 0H19.6875C20.9141 0 21.832 0.304688 22.4414 0.914062C23.0508 1.51562 23.3555 2.42188 23.3555 3.63281V17.9414C23.3555 19.1523 23.0508 20.0586 22.4414 20.6602C21.832 21.2695 20.9141 21.5742 19.6875 21.5742H3.67969ZM3.50391 19.6875H19.8398C20.3633 19.6875 20.7656 19.5469 21.0469 19.2656C21.3281 18.9922 21.4688 18.5859 21.4688 18.0469V6.99609C21.4688 6.45703 21.3281 6.05078 21.0469 5.77734C20.7656 5.49609 20.3633 5.35547 19.8398 5.35547H3.50391C2.98828 5.35547 2.58984 5.49609 2.30859 5.77734C2.02734 6.05078 1.88672 6.45703 1.88672 6.99609V18.0469C1.88672 18.5859 2.02734 18.9922 2.30859 19.2656C2.58984 19.5469 2.98828 19.6875 3.50391 19.6875ZM9.39844 9.57422C9.19531 9.57422 9.05078 9.53516 8.96484 9.45703C8.88672 9.37891 8.84766 9.23828 8.84766 9.03516V8.34375C8.84766 8.14062 8.88672 8.00391 8.96484 7.93359C9.05078 7.85547 9.19531 7.81641 9.39844 7.81641H10.0898C10.293 7.81641 10.4336 7.85547 10.5117 7.93359C10.5977 8.00391 10.6406 8.14062 10.6406 8.34375V9.03516C10.6406 9.23828 10.5977 9.37891 10.5117 9.45703C10.4336 9.53516 10.293 9.57422 10.0898 9.57422H9.39844ZM13.2891 9.57422C13.0859 9.57422 12.9453 9.53516 12.8672 9.45703C12.7891 9.37891 12.75 9.23828 12.75 9.03516V8.34375C12.75 8.14062 12.7891 8.00391 12.8672 7.93359C12.9453 7.85547 13.0859 7.81641 13.2891 7.81641H13.9805C14.1914 7.81641 14.3359 7.85547 14.4141 7.93359C14.4922 8.00391 14.5312 8.14062 14.5312 8.34375V9.03516C14.5312 9.23828 14.4922 9.37891 14.4141 9.45703C14.3359 9.53516 14.1914 9.57422 13.9805 9.57422H13.2891ZM17.1914 9.57422C16.9805 9.57422 16.8359 9.53516 16.7578 9.45703C16.6797 9.37891 16.6406 9.23828 16.6406 9.03516V8.34375C16.6406 8.14062 16.6797 8.00391 16.7578 7.93359C16.8359 7.85547 16.9805 7.81641 17.1914 7.81641H17.8711C18.082 7.81641 18.2266 7.85547 18.3047 7.93359C18.3828 8.00391 18.4219 8.14062 18.4219 8.34375V9.03516C18.4219 9.23828 18.3828 9.37891 18.3047 9.45703C18.2266 9.53516 18.082 9.57422 17.8711 9.57422H17.1914ZM5.50781 13.4062C5.29688 13.4062 5.15234 13.3672 5.07422 13.2891C4.99609 13.2109 4.95703 13.0703 4.95703 12.8672V12.1875C4.95703 11.9766 4.99609 11.8359 5.07422 11.7656C5.15234 11.6875 5.29688 11.6484 5.50781 11.6484H6.19922C6.40234 11.6484 6.54297 11.6875 6.62109 11.7656C6.69922 11.8359 6.73828 11.9766 6.73828 12.1875V12.8672C6.73828 13.0703 6.69922 13.2109 6.62109 13.2891C6.54297 13.3672 6.40234 13.4062 6.19922 13.4062H5.50781ZM9.39844 13.4062C9.19531 13.4062 9.05078 13.3672 8.96484 13.2891C8.88672 13.2109 8.84766 13.0703 8.84766 12.8672V12.1875C8.84766 11.9766 8.88672 11.8359 8.96484 11.7656C9.05078 11.6875 9.19531 11.6484 9.39844 11.6484H10.0898C10.293 11.6484 10.4336 11.6875 10.5117 11.7656C10.5977 11.8359 10.6406 11.9766 10.6406 12.1875V12.8672C10.6406 13.0703 10.5977 13.2109 10.5117 13.2891C10.4336 13.3672 10.293 13.4062 10.0898 13.4062H9.39844ZM13.2891 13.4062C13.0859 13.4062 12.9453 13.3672 12.8672 13.2891C12.7891 13.2109 12.75 13.0703 12.75 12.8672V12.1875C12.75 11.9766 12.7891 11.8359 12.8672 11.7656C12.9453 11.6875 13.0859 11.6484 13.2891 11.6484H13.9805C14.1914 11.6484 14.3359 11.6875 14.4141 11.7656C14.4922 11.8359 14.5312 11.9766 14.5312 12.1875V12.8672C14.5312 13.0703 14.4922 13.2109 14.4141 13.2891C14.3359 13.3672 14.1914 13.4062 13.9805 13.4062H13.2891ZM17.1914 13.4062C16.9805 13.4062 16.8359 13.3672 16.7578 13.2891C16.6797 13.2109 16.6406 13.0703 16.6406 12.8672V12.1875C16.6406 11.9766 16.6797 11.8359 16.7578 11.7656C16.8359 11.6875 16.9805 11.6484 17.1914 11.6484H17.8711C18.082 11.6484 18.2266 11.6875 18.3047 11.7656C18.3828 11.8359 18.4219 11.9766 18.4219 12.1875V12.8672C18.4219 13.0703 18.3828 13.2109 18.3047 13.2891C18.2266 13.3672 18.082 13.4062 17.8711 13.4062H17.1914ZM5.50781 17.2383C5.29688 17.2383 5.15234 17.2031 5.07422 17.1328C4.99609 17.0547 4.95703 16.9102 4.95703 16.6992V16.0195C4.95703 15.8086 4.99609 15.668 5.07422 15.5977C5.15234 15.5195 5.29688 15.4805 5.50781 15.4805H6.19922C6.40234 15.4805 6.54297 15.5195 6.62109 15.5977C6.69922 15.668 6.73828 15.8086 6.73828 16.0195V16.6992C6.73828 16.9102 6.69922 17.0547 6.62109 17.1328C6.54297 17.2031 6.40234 17.2383 6.19922 17.2383H5.50781ZM9.39844 17.2383C9.19531 17.2383 9.05078 17.2031 8.96484 17.1328C8.88672 17.0547 8.84766 16.9102 8.84766 16.6992V16.0195C8.84766 15.8086 8.88672 15.668 8.96484 15.5977C9.05078 15.5195 9.19531 15.4805 9.39844 15.4805H10.0898C10.293 15.4805 10.4336 15.5195 10.5117 15.5977C10.5977 15.668 10.6406 15.8086 10.6406 16.0195V16.6992C10.6406 16.9102 10.5977 17.0547 10.5117 17.1328C10.4336 17.2031 10.293 17.2383 10.0898 17.2383H9.39844ZM13.2891 17.2383C13.0859 17.2383 12.9453 17.2031 12.8672 17.1328C12.7891 17.0547 12.75 16.9102 12.75 16.6992V16.0195C12.75 15.8086 12.7891 15.668 12.8672 15.5977C12.9453 15.5195 13.0859 15.4805 13.2891 15.4805H13.9805C14.1914 15.4805 14.3359 15.5195 14.4141 15.5977C14.4922 15.668 14.5312 15.8086 14.5312 16.0195V16.6992C14.5312 16.9102 14.4922 17.0547 14.4141 17.1328C14.3359 17.2031 14.1914 17.2383 13.9805 17.2383H13.2891Z" fill="var(--fill-0, #BFBFBF)"/>
</g>
</svg>
