<svg width="28" height="28" viewBox="0 0 28 28" fill="none" xmlns="http://www.w3.org/2000/svg">
<path d="M8.39453 23.2734C7.3724 23.2734 6.60417 23.0195 6.08984 22.5117C5.58203 22.0104 5.32812 21.2552 5.32812 20.2461V10.1387C5.32812 9.12956 5.58203 8.37435 6.08984 7.87305C6.60417 7.36523 7.3724 7.11133 8.39453 7.11133H19.5957C20.6113 7.11133 21.3763 7.36523 21.8906 7.87305C22.4049 8.37435 22.6621 9.12956 22.6621 10.1387V20.2461C22.6621 21.2552 22.418 22.0104 21.9297 22.5117C21.4414 23.0195 20.7611 23.2734 19.8887 23.2734H8.39453ZM10.1426 7.49219C10.1426 6.76953 10.3118 6.11849 10.6504 5.53906C10.9889 4.95312 11.4479 4.48763 12.0273 4.14258C12.6068 3.79753 13.2611 3.625 13.9902 3.625C14.7194 3.625 15.3737 3.79753 15.9531 4.14258C16.5391 4.48763 17.0013 4.95312 17.3398 5.53906C17.6784 6.11849 17.8477 6.76953 17.8477 7.49219L16.2754 7.50195C16.2754 7.0332 16.1777 6.61979 15.9824 6.26172C15.7936 5.90365 15.5267 5.6237 15.1816 5.42188C14.8431 5.21354 14.446 5.10938 13.9902 5.10938C13.541 5.10938 13.1439 5.21354 12.7988 5.42188C12.4603 5.6237 12.1934 5.90365 11.998 6.26172C11.8092 6.61979 11.7148 7.0332 11.7148 7.50195L10.1426 7.49219Z" fill="#3C3C43" fill-opacity="0.3"/>
</svg>
