<svg width="28" height="28" viewBox="0 0 28 28" fill="none" xmlns="http://www.w3.org/2000/svg">
<path d="M2.56445 11.2617V10.7832C2.56445 10.3275 2.69792 9.96289 2.96484 9.68945C3.23177 9.41602 3.59635 9.2793 4.05859 9.2793H23.9316C24.3939 9.2793 24.7585 9.41602 25.0254 9.68945C25.2988 9.96289 25.4355 10.3275 25.4355 10.7832V11.2617C25.4355 11.724 25.2988 12.0885 25.0254 12.3555C24.7585 12.6224 24.3939 12.7559 23.9316 12.7559H4.05859C3.59635 12.7559 3.23177 12.6224 2.96484 12.3555C2.69792 12.0885 2.56445 11.724 2.56445 11.2617ZM8.77539 23.4785C8.02669 23.4785 7.43099 23.3483 6.98828 23.0879C6.55208 22.8275 6.22331 22.4889 6.00195 22.0723C5.7806 21.6556 5.62435 21.2129 5.5332 20.7441L4.18555 14.0938H23.8242L22.4668 20.7441C22.3757 21.2129 22.2194 21.6556 21.998 22.0723C21.7767 22.4889 21.4447 22.8275 21.002 23.0879C20.5658 23.3483 19.9733 23.4785 19.2246 23.4785H8.77539ZM9.41016 21.7988C9.60547 21.7663 9.7487 21.6882 9.83984 21.5645C9.93099 21.4408 9.96354 21.2975 9.9375 21.1348L9.10742 16.2227C9.08138 16.0599 9 15.9362 8.86328 15.8516C8.73307 15.7604 8.57682 15.7279 8.39453 15.7539C8.20573 15.7865 8.0625 15.8646 7.96484 15.9883C7.86719 16.112 7.83464 16.2552 7.86719 16.418L8.70703 21.3301C8.73958 21.4928 8.81771 21.6165 8.94141 21.7012C9.07161 21.7923 9.22786 21.8249 9.41016 21.7988ZM12.5059 21.7891C12.6816 21.776 12.8249 21.7109 12.9355 21.5938C13.0462 21.4831 13.0983 21.3431 13.0918 21.1738L12.7695 16.3203C12.7565 16.151 12.6882 16.0143 12.5645 15.9102C12.4473 15.806 12.2943 15.7604 12.1055 15.7734C11.9232 15.7865 11.7767 15.8516 11.666 15.9688C11.5553 16.0794 11.5065 16.2194 11.5195 16.3887L11.8418 21.2422C11.8548 21.4115 11.9199 21.5482 12.0371 21.6523C12.1608 21.7565 12.3171 21.8021 12.5059 21.7891ZM15.5137 21.7891C15.696 21.8021 15.8457 21.7565 15.9629 21.6523C16.0866 21.5482 16.1549 21.4115 16.168 21.2422L16.4902 16.3887C16.5033 16.2194 16.4544 16.0794 16.3438 15.9688C16.2331 15.8516 16.0866 15.7865 15.9043 15.7734C15.7155 15.7604 15.5592 15.806 15.4355 15.9102C15.3184 16.0143 15.2533 16.151 15.2402 16.3203L14.918 21.1738C14.9115 21.3431 14.9635 21.4831 15.0742 21.5938C15.1849 21.7109 15.3314 21.776 15.5137 21.7891ZM18.5898 21.7988C18.7656 21.8249 18.9186 21.7923 19.0488 21.7012C19.179 21.6165 19.2604 21.4928 19.293 21.3301L20.1328 16.4375C20.1654 16.2747 20.1328 16.1283 20.0352 15.998C19.9375 15.8678 19.7943 15.7865 19.6055 15.7539C19.4232 15.7279 19.2637 15.7604 19.127 15.8516C18.9967 15.9362 18.9186 16.0599 18.8926 16.2227L18.0625 21.1348C18.0365 21.2975 18.069 21.4408 18.1602 21.5645C18.2578 21.6882 18.401 21.7663 18.5898 21.7988ZM5.70898 9.69922L9.70312 2.94141C9.83333 2.72005 10.0026 2.5931 10.2109 2.56055C10.4193 2.52799 10.6113 2.56055 10.7871 2.6582C10.9629 2.75586 11.0898 2.90234 11.168 3.09766C11.2526 3.28646 11.2298 3.49805 11.0996 3.73242L7.66211 9.69922H5.70898ZM20.3379 9.69922L16.9004 3.73242C16.7702 3.49805 16.7441 3.28646 16.8223 3.09766C16.9069 2.90234 17.0371 2.75586 17.2129 2.6582C17.3952 2.56706 17.5905 2.53776 17.7988 2.57031C18.0072 2.60286 18.1732 2.72656 18.2969 2.94141L22.291 9.69922H20.3379Z" fill="#3C3C43" fill-opacity="0.3"/>
</svg>
