<svg width="28" height="28" viewBox="0 0 28 28" fill="none" xmlns="http://www.w3.org/2000/svg">
<path d="M13.9902 15.0508C13.0788 15.0508 12.2227 14.8815 11.4219 14.543C10.6276 14.1979 9.92773 13.7227 9.32227 13.1172C8.7168 12.5117 8.24154 11.8118 7.89648 11.0176C7.55794 10.2168 7.38867 9.36068 7.38867 8.44922C7.38867 8.3776 7.38867 8.30924 7.38867 8.24414C7.39518 8.17904 7.39844 8.11393 7.39844 8.04883C6.85807 7.99023 6.36654 7.81445 5.92383 7.52148C5.48763 7.22201 5.13932 6.83789 4.87891 6.36914C4.625 5.90039 4.49805 5.38607 4.49805 4.82617C4.49805 4.23372 4.64128 3.69336 4.92773 3.20508C5.2207 2.7168 5.61133 2.32943 6.09961 2.04297C6.5944 1.75 7.13802 1.60352 7.73047 1.60352C8.27083 1.60352 8.76888 1.72721 9.22461 1.97461C9.68034 2.21549 10.0547 2.54102 10.3477 2.95117C10.8685 2.59961 11.4382 2.32943 12.0566 2.14062C12.6751 1.94531 13.3197 1.84766 13.9902 1.84766C14.6608 1.84766 15.3021 1.94531 15.9141 2.14062C16.5326 2.32943 17.1055 2.59961 17.6328 2.95117C17.9258 2.54102 18.3001 2.21549 18.7559 1.97461C19.2116 1.72721 19.7096 1.60352 20.25 1.60352C20.8424 1.60352 21.3828 1.75 21.8711 2.04297C22.3659 2.32943 22.7565 2.7168 23.043 3.20508C23.3359 3.69336 23.4824 4.23372 23.4824 4.82617C23.4824 5.38607 23.3522 5.90039 23.0918 6.36914C22.8379 6.83789 22.4896 7.22201 22.0469 7.52148C21.6107 7.81445 21.1224 7.99023 20.582 8.04883C20.582 8.11393 20.582 8.17904 20.582 8.24414C20.5885 8.30924 20.5918 8.3776 20.5918 8.44922C20.5918 9.36068 20.4193 10.2168 20.0742 11.0176C19.7357 11.8118 19.2637 12.5117 18.6582 13.1172C18.0527 13.7227 17.3496 14.1979 16.5488 14.543C15.7546 14.8815 14.9017 15.0508 13.9902 15.0508ZM11.4414 8.00977C11.6758 8.00977 11.8743 7.92839 12.0371 7.76562C12.2064 7.59635 12.291 7.39453 12.291 7.16016C12.291 6.92578 12.2064 6.72721 12.0371 6.56445C11.8743 6.39518 11.6758 6.31055 11.4414 6.31055C11.2201 6.31055 11.0247 6.39518 10.8555 6.56445C10.6862 6.72721 10.6016 6.92578 10.6016 7.16016C10.6016 7.39453 10.6862 7.59635 10.8555 7.76562C11.0247 7.92839 11.2201 8.00977 11.4414 8.00977ZM16.5488 8.00977C16.7702 8.00977 16.9655 7.92839 17.1348 7.76562C17.304 7.59635 17.3887 7.39453 17.3887 7.16016C17.3887 6.92578 17.304 6.72721 17.1348 6.56445C16.9655 6.39518 16.7702 6.31055 16.5488 6.31055C16.3145 6.31055 16.1126 6.39518 15.9434 6.56445C15.7806 6.72721 15.6992 6.92578 15.6992 7.16016C15.6992 7.39453 15.7806 7.59635 15.9434 7.76562C16.1126 7.92839 16.3145 8.00977 16.5488 8.00977ZM7.73047 3C7.22917 3 6.79948 3.17904 6.44141 3.53711C6.08333 3.89518 5.9043 4.32487 5.9043 4.82617C5.9043 5.28841 6.05404 5.6888 6.35352 6.02734C6.65299 6.35938 7.02409 6.55794 7.4668 6.62305C7.5319 6.63607 7.59049 6.64258 7.64258 6.64258C7.79232 6.10872 8.00391 5.60742 8.27734 5.13867C8.55729 4.66341 8.88607 4.23372 9.26367 3.84961C9.10091 3.58919 8.88281 3.38411 8.60938 3.23438C8.34245 3.07812 8.04948 3 7.73047 3ZM20.25 3C19.931 3 19.6348 3.07812 19.3613 3.23438C19.0879 3.38411 18.873 3.58919 18.7168 3.84961C19.0944 4.23372 19.4199 4.66341 19.6934 5.13867C19.9733 5.60742 20.1882 6.10872 20.3379 6.64258C20.377 6.64258 20.4355 6.63607 20.5137 6.62305C20.9564 6.56445 21.3275 6.36589 21.627 6.02734C21.9264 5.68229 22.0762 5.2819 22.0762 4.82617C22.0762 4.32487 21.8971 3.89518 21.5391 3.53711C21.181 3.17904 20.7513 3 20.25 3ZM14.0098 14.2305C14.5632 14.2305 15.0677 14.0938 15.5234 13.8203C15.9792 13.5469 16.3438 13.1823 16.6172 12.7266C16.8906 12.2708 17.0273 11.7663 17.0273 11.2129C17.0273 10.653 16.8906 10.1452 16.6172 9.68945C16.3438 9.23372 15.9792 8.8724 15.5234 8.60547C15.0677 8.33203 14.5632 8.19531 14.0098 8.19531C13.4564 8.19531 12.9486 8.33203 12.4863 8.60547C12.0306 8.87891 11.666 9.24349 11.3926 9.69922C11.1257 10.1549 10.9922 10.6595 10.9922 11.2129C10.9922 11.7663 11.1257 12.2741 11.3926 12.7363C11.666 13.1921 12.0306 13.5566 12.4863 13.8301C12.9421 14.097 13.4499 14.2305 14.0098 14.2305ZM13.9902 11.5938C13.8014 11.5938 13.5833 11.5189 13.3359 11.3691C13.0951 11.2129 12.8835 11.0469 12.7012 10.8711C12.5254 10.6888 12.4375 10.5553 12.4375 10.4707C12.4375 10.2689 12.584 10.0605 12.877 9.8457C13.1764 9.62435 13.5475 9.51367 13.9902 9.51367C14.4329 9.51367 14.7975 9.62435 15.084 9.8457C15.3704 10.0605 15.5137 10.2689 15.5137 10.4707C15.5137 10.5553 15.4258 10.6888 15.25 10.8711C15.0807 11.0469 14.8757 11.2129 14.6348 11.3691C14.4004 11.5189 14.1855 11.5938 13.9902 11.5938ZM22.418 13.6738C22.9844 13.9342 23.4368 14.3118 23.7754 14.8066C24.1139 15.3014 24.3125 15.8483 24.3711 16.4473C24.4297 17.0397 24.3288 17.6159 24.0684 18.1758C23.8665 18.599 23.5964 18.957 23.2578 19.25C22.9258 19.543 22.5514 19.7611 22.1348 19.9043C21.8743 18.9603 21.4121 18.1888 20.748 17.5898C20.0905 16.9844 19.3288 16.6816 18.4629 16.6816C17.7337 16.6816 17.0762 16.8997 16.4902 17.3359C15.9043 17.7656 15.4355 18.3483 15.084 19.084C14.7389 19.8132 14.5664 20.6237 14.5664 21.5156C14.5664 22.1146 14.6445 22.6777 14.8008 23.2051C14.9635 23.7389 15.1849 24.2174 15.4648 24.6406C15.1523 24.6797 14.8301 24.7057 14.498 24.7188C14.166 24.7318 13.8307 24.7318 13.4922 24.7188C13.1602 24.7057 12.8411 24.6797 12.5352 24.6406C12.8151 24.2174 13.0332 23.7389 13.1895 23.2051C13.3522 22.6777 13.4336 22.1146 13.4336 21.5156C13.4336 20.6237 13.2578 19.8132 12.9062 19.084C12.5612 18.3483 12.0957 17.7656 11.5098 17.3359C10.9238 16.8997 10.2663 16.6816 9.53711 16.6816C8.67122 16.6816 7.90625 16.9844 7.24219 17.5898C6.58464 18.1888 6.12565 18.9603 5.86523 19.9043C5.44206 19.7611 5.06445 19.543 4.73242 19.25C4.40039 18.957 4.13346 18.599 3.93164 18.1758C3.67122 17.6159 3.57031 17.0397 3.62891 16.4473C3.6875 15.8483 3.88607 15.3014 4.22461 14.8066C4.56315 14.3118 5.01562 13.9342 5.58203 13.6738L9.16602 12.0527L13.0723 14.6602H14.9277L18.834 12.0527L22.418 13.6738ZM9.53711 25.4902C8.9707 25.4902 8.45964 25.3112 8.00391 24.9531C7.55469 24.5951 7.19661 24.1133 6.92969 23.5078C6.66276 22.9089 6.5293 22.2448 6.5293 21.5156C6.5293 20.793 6.66276 20.1354 6.92969 19.543C7.19661 18.944 7.55469 18.4655 8.00391 18.1074C8.45964 17.7493 8.9707 17.5703 9.53711 17.5703C10.097 17.5703 10.6048 17.7493 11.0605 18.1074C11.5163 18.4655 11.8776 18.944 12.1445 19.543C12.4115 20.1354 12.5449 20.793 12.5449 21.5156C12.5449 22.2448 12.4115 22.9089 12.1445 23.5078C11.8776 24.1133 11.5163 24.5951 11.0605 24.9531C10.6048 25.3112 10.097 25.4902 9.53711 25.4902ZM18.4629 25.4902C17.903 25.4902 17.3952 25.3112 16.9395 24.9531C16.4837 24.5951 16.1224 24.1133 15.8555 23.5078C15.5885 22.9089 15.4551 22.2448 15.4551 21.5156C15.4551 20.793 15.5885 20.1354 15.8555 19.543C16.1224 18.944 16.4837 18.4655 16.9395 18.1074C17.3952 17.7493 17.903 17.5703 18.4629 17.5703C19.0293 17.5703 19.5371 17.7493 19.9863 18.1074C20.4421 18.4655 20.8034 18.944 21.0703 19.543C21.3372 20.1354 21.4707 20.793 21.4707 21.5156C21.4707 22.2448 21.3372 22.9089 21.0703 23.5078C20.8034 24.1133 20.4421 24.5951 19.9863 24.9531C19.5371 25.3112 19.0293 25.4902 18.4629 25.4902Z" fill="#3C3C43" fill-opacity="0.3"/>
</svg>
