<svg width="28" height="28" viewBox="0 0 28 28" fill="none" xmlns="http://www.w3.org/2000/svg">
<path d="M7.21289 17.2578C5.87826 17.2578 4.86263 16.9193 4.16602 16.2422C3.4694 15.5651 3.12109 14.5853 3.12109 13.3027V11.877C3.12109 10.5944 3.4694 9.61458 4.16602 8.9375C4.86263 8.26042 5.87826 7.92188 7.21289 7.92188H9.3125V17.2578H7.21289ZM10.6504 17.2676V7.92188C11.4902 7.83073 12.4277 7.67773 13.4629 7.46289C14.5046 7.24805 15.5527 6.97461 16.6074 6.64258C17.6686 6.31055 18.6517 5.92318 19.5566 5.48047C19.5566 5.53906 19.5566 5.5944 19.5566 5.64648C19.5566 5.69857 19.5566 5.75391 19.5566 5.8125V19.3965C19.5566 19.4486 19.5566 19.5007 19.5566 19.5527C19.5566 19.6048 19.5566 19.6536 19.5566 19.6992C18.6647 19.263 17.7044 18.8822 16.6758 18.5566C15.6471 18.2246 14.6152 17.9512 13.5801 17.7363C12.5449 17.5215 11.5684 17.3652 10.6504 17.2676ZM22.877 22.082C22.4863 22.082 22.1413 21.9974 21.8418 21.8281C21.5423 21.6654 21.3079 21.4342 21.1387 21.1348C20.9759 20.8353 20.8945 20.4902 20.8945 20.0996V5.02148C20.8945 4.63086 20.9759 4.28581 21.1387 3.98633C21.3079 3.68034 21.5423 3.44596 21.8418 3.2832C22.1413 3.11393 22.4863 3.0293 22.877 3.0293C23.2741 3.0293 23.6224 3.11393 23.9219 3.2832C24.2214 3.44596 24.4525 3.68034 24.6152 3.98633C24.7845 4.28581 24.8691 4.63086 24.8691 5.02148V20.0996C24.8691 20.4902 24.7845 20.8353 24.6152 21.1348C24.4525 21.4342 24.2214 21.6654 23.9219 21.8281C23.6224 21.9974 23.2741 22.082 22.877 22.082ZM11.0996 23.8691C10.5332 23.8691 10.0807 23.7194 9.74219 23.4199C9.41016 23.1204 9.12044 22.7038 8.87305 22.1699L7.23242 18.5859C7.38867 18.5859 7.53841 18.5892 7.68164 18.5957C7.82487 18.6022 7.9388 18.6055 8.02344 18.6055C9.26042 18.638 10.1947 18.6771 10.8262 18.7227C11.4642 18.7682 11.9688 18.8236 12.3398 18.8887L12.8867 21.5156C12.9909 22.0169 12.9746 22.4434 12.8379 22.7949C12.7012 23.1465 12.4766 23.4134 12.1641 23.5957C11.8581 23.778 11.5033 23.8691 11.0996 23.8691Z" fill="#3C3C43" fill-opacity="0.3"/>
</svg>
