<svg width="28" height="28" viewBox="0 0 28 28" fill="none" xmlns="http://www.w3.org/2000/svg">
<path d="M14 19.8066C13.1797 19.8066 12.3138 19.7969 11.4023 19.7773C10.4909 19.7578 9.5957 19.7318 8.7168 19.6992C7.83789 19.6602 7.0306 19.6178 6.29492 19.5723C5.56576 19.5267 4.97005 19.4779 4.50781 19.4258C3.85026 19.3477 3.34245 19.1296 2.98438 18.7715C2.6263 18.4134 2.44727 17.9219 2.44727 17.2969V15.5781C2.44727 15.0247 2.48633 14.543 2.56445 14.1328C2.64909 13.7161 2.7793 13.3288 2.95508 12.9707C3.13737 12.6061 3.38151 12.2285 3.6875 11.8379L4.50781 10.7734C4.625 10.1875 4.76823 9.60807 4.9375 9.03516C5.10677 8.46224 5.27279 7.94792 5.43555 7.49219C5.59831 7.03646 5.73828 6.68815 5.85547 6.44727C6.11589 5.89388 6.49023 5.45443 6.97852 5.12891C7.4668 4.79688 8.03646 4.5918 8.6875 4.51367C8.90234 4.48763 9.26693 4.46484 9.78125 4.44531C10.3021 4.42578 10.9238 4.40951 11.6465 4.39648C12.3757 4.38346 13.1602 4.37695 14 4.37695C14.8398 4.37695 15.6211 4.38346 16.3438 4.39648C17.0729 4.40299 17.6947 4.41602 18.209 4.43555C18.7298 4.45508 19.1009 4.48112 19.3223 4.51367C19.9668 4.59831 20.5332 4.80339 21.0215 5.12891C21.5163 5.45443 21.8939 5.89388 22.1543 6.44727C22.265 6.68815 22.4017 7.03646 22.5645 7.49219C22.7337 7.94792 22.8997 8.46224 23.0625 9.03516C23.2318 9.60807 23.375 10.1875 23.4922 10.7734L24.3223 11.8379C24.6217 12.2285 24.8626 12.6061 25.0449 12.9707C25.2272 13.3288 25.3574 13.7161 25.4355 14.1328C25.5137 14.543 25.5527 15.0247 25.5527 15.5781V17.2969C25.5527 17.9219 25.3737 18.4134 25.0156 18.7715C24.6641 19.1296 24.1562 19.3477 23.4922 19.4258C23.0299 19.4779 22.431 19.5267 21.6953 19.5723C20.9661 19.6178 20.1621 19.6602 19.2832 19.6992C18.4043 19.7318 17.5091 19.7578 16.5977 19.7773C15.6862 19.7969 14.8203 19.8066 14 19.8066ZM3.74609 22.4922C3.375 22.4922 3.06576 22.3685 2.81836 22.1211C2.57096 21.8737 2.44727 21.5677 2.44727 21.2031V16.9941L6.1875 18.7715V21.2031C6.1875 21.5677 6.06055 21.8737 5.80664 22.1211C5.55924 22.3685 5.25326 22.4922 4.88867 22.4922H3.74609ZM23.1113 22.4922C22.7467 22.4922 22.4408 22.3685 22.1934 22.1211C21.946 21.8737 21.8223 21.5677 21.8223 21.2031V18.7715L25.5527 16.9941V21.2031C25.5527 21.5677 25.429 21.8737 25.1816 22.1211C24.9342 22.3685 24.6283 22.4922 24.2637 22.4922H23.1113ZM10.8164 12.7168C10.8164 12.8014 10.849 12.8763 10.9141 12.9414C10.9857 13 11.0638 13.0293 11.1484 13.0293H13.6582L12.3203 16.6035C12.2617 16.7598 12.265 16.8867 12.3301 16.9844C12.4017 17.082 12.4993 17.1341 12.623 17.1406C12.7467 17.1406 12.8607 17.0788 12.9648 16.9551L16.9785 11.8867C17.0697 11.7956 17.1152 11.6979 17.1152 11.5938C17.1152 11.5026 17.0794 11.4277 17.0078 11.3691C16.9427 11.304 16.8646 11.2715 16.7734 11.2715H14.2832L15.6016 7.70703C15.6667 7.54427 15.6634 7.41406 15.5918 7.31641C15.5267 7.21875 15.4323 7.16992 15.3086 7.16992C15.1849 7.16341 15.0742 7.22526 14.9766 7.35547L10.9434 12.4238C10.8587 12.5215 10.8164 12.6191 10.8164 12.7168Z" fill="#3C3C43" fill-opacity="0.3"/>
</svg>
