<svg width="29" height="28" viewBox="0 0 29 28" fill="none" xmlns="http://www.w3.org/2000/svg">
<path d="M14.5 23.3125C14.4219 23.3125 14.3242 23.2962 14.207 23.2637C14.0964 23.2376 13.9792 23.1921 13.8555 23.127C12.4948 22.3522 11.3424 21.6686 10.3984 21.0762C9.46094 20.4837 8.70573 19.9108 8.13281 19.3574C7.56641 18.7975 7.15299 18.1953 6.89258 17.5508C6.63867 16.8997 6.51172 16.1348 6.51172 15.2559V7.89258C6.51172 7.39128 6.61914 7.02995 6.83398 6.80859C7.04883 6.58073 7.35807 6.38542 7.76172 6.22266C7.98958 6.13151 8.30208 6.01107 8.69922 5.86133C9.09635 5.70508 9.53255 5.53906 10.0078 5.36328C10.4896 5.18099 10.9681 5.00521 11.4434 4.83594C11.9251 4.66016 12.3646 4.50391 12.7617 4.36719C13.1589 4.22396 13.4714 4.11328 13.6992 4.03516C13.8294 3.99609 13.9596 3.96354 14.0898 3.9375C14.2266 3.91146 14.3633 3.89844 14.5 3.89844C14.6367 3.89844 14.7734 3.91146 14.9102 3.9375C15.0469 3.96354 15.1803 3.99609 15.3105 4.03516C15.5384 4.11328 15.8477 4.22396 16.2383 4.36719C16.6354 4.50391 17.0716 4.66016 17.5469 4.83594C18.0286 5.01172 18.5072 5.1875 18.9824 5.36328C19.4642 5.53906 19.9036 5.70182 20.3008 5.85156C20.6979 6.0013 21.0104 6.125 21.2383 6.22266C21.6484 6.39193 21.9577 6.58724 22.166 6.80859C22.3809 7.02995 22.4883 7.39128 22.4883 7.89258V15.2559C22.4883 16.1348 22.3646 16.9062 22.1172 17.5703C21.8698 18.2279 21.4629 18.8431 20.8965 19.416C20.3366 19.9889 19.5846 20.5684 18.6406 21.1543C17.7031 21.7402 16.5378 22.3978 15.1445 23.127C15.0208 23.1921 14.9004 23.2376 14.7832 23.2637C14.6725 23.2962 14.5781 23.3125 14.5 23.3125Z" fill="#3C3C43" fill-opacity="0.3"/>
</svg>
