<svg width="36" height="36" viewBox="0 0 36 36" fill="none" xmlns="http://www.w3.org/2000/svg">
<g id="Leading Symbol">
<g id="Symbol">
<path d="M19.0547 26.625C19.0547 26.9062 18.9492 27.1484 18.7383 27.3516C18.5352 27.5625 18.2891 27.668 18 27.668C17.7109 27.668 17.4648 27.5625 17.2617 27.3516C17.0586 27.1484 16.957 26.9062 16.957 26.625V9.375C16.957 9.09375 17.0586 8.85156 17.2617 8.64844C17.4648 8.4375 17.7109 8.33203 18 8.33203C18.2891 8.33203 18.5352 8.4375 18.7383 8.64844C18.9492 8.85156 19.0547 9.09375 19.0547 9.375V26.625ZM9.375 19.043C9.09375 19.043 8.84766 18.9414 8.63672 18.7383C8.43359 18.5352 8.33203 18.2891 8.33203 18C8.33203 17.7109 8.43359 17.4648 8.63672 17.2617C8.84766 17.0508 9.09375 16.9453 9.375 16.9453H26.625C26.9062 16.9453 27.1484 17.0508 27.3516 17.2617C27.5625 17.4648 27.668 17.7109 27.668 18C27.668 18.2891 27.5625 18.5352 27.3516 18.7383C27.1484 18.9414 26.9062 19.043 26.625 19.043H9.375Z" fill="var(--fill-0, #EBEBF5)" fill-opacity="0.6" style="mix-blend-mode:plus-lighter"/>
</g>
</g>
</svg>
