<svg width="28" height="28" viewBox="0 0 28 28" fill="none" xmlns="http://www.w3.org/2000/svg">
<g id="Frame 2085661633">
<path id="&#244;&#128;&#129;&#161;" d="M13.9961 22C12.8918 22 11.8571 21.7909 10.8921 21.3727C9.92711 20.9597 9.07821 20.3866 8.34543 19.6534C7.61264 18.9203 7.03725 18.071 6.61925 17.1055C6.20642 16.14 6 15.1049 6 14C6 12.8951 6.20642 11.86 6.61925 10.8945C7.03725 9.92385 7.61264 9.07454 8.34543 8.34656C9.07821 7.61342 9.92711 7.04034 10.8921 6.6273C11.8571 6.2091 12.8918 6 13.9961 6C15.1005 6 16.1351 6.2091 17.1001 6.6273C18.0703 7.04034 18.9218 7.61342 19.6546 8.34656C20.3874 9.07454 20.9602 9.92385 21.373 10.8945C21.791 11.86 22 12.8951 22 14C22 15.1049 21.791 16.14 21.373 17.1055C20.9602 18.071 20.3874 18.9203 19.6546 19.6534C18.9218 20.3866 18.0703 20.9597 17.1001 21.3727C16.1351 21.7909 15.1005 22 13.9961 22ZM11.4572 17.2759C11.6688 17.2759 11.8494 17.2062 11.999 17.0668L14.0039 15.0455L16.0164 17.0668C16.1558 17.2062 16.3312 17.2759 16.5428 17.2759C16.7492 17.2759 16.9221 17.2062 17.0614 17.0668C17.2059 16.9222 17.2782 16.7493 17.2782 16.5479C17.2782 16.3362 17.2059 16.1633 17.0614 16.029L15.0411 14.0077L17.0692 11.9864C17.2137 11.8367 17.2859 11.6638 17.2859 11.4676C17.2859 11.2662 17.2137 11.0958 17.0692 10.9564C16.9299 10.8119 16.7596 10.7396 16.5583 10.7396C16.357 10.7396 16.1842 10.8119 16.0397 10.9564L14.0039 12.9777L11.9758 10.9564C11.8313 10.8222 11.6584 10.7551 11.4572 10.7551C11.2559 10.7551 11.0831 10.8248 10.9386 10.9642C10.7992 11.0984 10.7296 11.2714 10.7296 11.4831C10.7296 11.6741 10.8018 11.8445 10.9463 11.9942L12.9666 14.0077L10.9463 16.0368C10.8018 16.1762 10.7296 16.3466 10.7296 16.5479C10.7296 16.7493 10.7992 16.9222 10.9386 17.0668C11.0831 17.2062 11.2559 17.2759 11.4572 17.2759Z" fill="var(--fill-0, #3A3A3C)"/>
</g>
</svg>
