<svg width="34" height="34" viewBox="0 0 34.0426 34.0426" fill="none" xmlns="http://www.w3.org/2000/svg">
<g id="Frame 76">
<path id="&#244;&#128;&#134;&#191;" d="M16.0925 9.24593C15.9044 9.24593 15.7868 9.11741 15.7633 8.94216C15.4576 7.06113 15.4693 7.0144 13.4703 6.6639C13.2704 6.62885 13.1528 6.51201 13.1528 6.32508C13.1528 6.14983 13.2704 6.03299 13.4467 5.99794C15.4811 5.61239 15.4693 5.56566 15.7633 3.71968C15.7868 3.53274 15.9044 3.40422 16.0925 3.40422C16.2807 3.40422 16.3983 3.53274 16.4336 3.70799C16.7393 5.61239 16.7158 5.67081 18.7383 5.99794C18.9147 6.02131 19.0441 6.14983 19.0441 6.32508C19.0441 6.51201 18.9265 6.62885 18.7383 6.6639C16.7158 7.04945 16.7511 7.0845 16.4336 8.95385C16.3983 9.11741 16.2807 9.24593 16.0925 9.24593ZM10.3776 17.6346C10.0954 17.6346 9.88375 17.436 9.84847 17.1322C9.47218 14.0829 9.36635 13.9777 6.20315 13.4987C5.8739 13.452 5.67399 13.265 5.67399 12.9729C5.67399 12.6925 5.8739 12.4939 6.14436 12.4472C9.36635 11.863 9.47218 11.8513 9.84847 8.81365C9.88375 8.50988 10.0954 8.31126 10.3776 8.31126C10.6598 8.31126 10.8715 8.50988 10.9068 8.80196C11.3066 11.9331 11.4007 12.0149 14.6109 12.4472C14.8814 12.4822 15.0813 12.6925 15.0813 12.9729C15.0813 13.2533 14.8814 13.452 14.6109 13.4987C11.3772 14.0829 11.3066 14.1062 10.9068 17.1673C10.8715 17.436 10.6481 17.6346 10.3776 17.6346ZM18.7971 30.6383C18.3385 30.6383 17.9858 30.3111 17.9034 29.8321C16.9274 23.6282 16.1396 22.8571 10.0601 22.0276C9.56625 21.9575 9.22524 21.5953 9.22524 21.128C9.22524 20.6606 9.57801 20.2868 10.0719 20.2283C16.1631 19.5507 17.0333 18.6277 17.9034 12.4355C17.974 11.9565 18.3385 11.6293 18.7971 11.6293C19.244 11.6293 19.6085 11.9565 19.6908 12.4355C20.6316 18.6277 21.4429 19.4806 27.5341 20.2283C28.0163 20.2984 28.369 20.6723 28.369 21.128C28.369 21.5953 28.0163 21.9809 27.5224 22.0276C21.4194 22.7169 20.5492 23.6282 19.6908 29.8321C19.6085 30.3111 19.2557 30.6383 18.7971 30.6383Z" fill="var(--fill-0, white)"/>
</g>
</svg>
