<svg preserveAspectRatio="none" width="100%" height="100%" overflow="visible" style="display: block;" viewBox="0 0 36 36" fill="none" xmlns="http://www.w3.org/2000/svg">
<g id="Symbol 2" style="mix-blend-mode:plus-lighter">
<g id="Symbol">
<path d="M9.97656 11.582L13.0391 11.418H26.8125C27.0312 11.418 27.2135 11.4909 27.3594 11.6367C27.5052 11.7773 27.5781 11.9596 27.5781 12.1836C27.5781 12.4076 27.5052 12.5898 27.3594 12.7305C27.2135 12.8711 27.0312 12.9414 26.8125 12.9414H13.0391L9.97656 12.7695C9.78906 12.7539 9.64323 12.6862 9.53906 12.5664C9.4349 12.4466 9.38281 12.3164 9.38281 12.1758C9.38281 12.0247 9.4349 11.8919 9.53906 11.7773C9.64323 11.6576 9.78906 11.5924 9.97656 11.582ZM14.9609 16.8086C15.112 16.9596 15.1875 17.1393 15.1875 17.3477C15.1875 17.5716 15.1172 17.7539 14.9766 17.8945C14.8411 18.0352 14.6615 18.1055 14.4375 18.1055C14.3333 18.1055 14.2292 18.0846 14.125 18.043C14.026 17.9961 13.9375 17.9336 13.8594 17.8555L8.67969 12.7539C8.51302 12.5977 8.42708 12.4102 8.42188 12.1914C8.41667 11.9674 8.5026 11.7747 8.67969 11.6133L13.8594 6.51172C13.9375 6.43359 14.026 6.37109 14.125 6.32422C14.2292 6.27734 14.3333 6.25391 14.4375 6.25391C14.6615 6.25391 14.8411 6.32682 14.9766 6.47266C15.1172 6.61328 15.1875 6.79297 15.1875 7.01172C15.1875 7.22526 15.112 7.40755 14.9609 7.55859L12.6875 9.77734L9.94531 12.1836L12.6875 14.582L14.9609 16.8086ZM26.0156 23.2148C26.2083 23.2305 26.3542 23.2982 26.4531 23.418C26.5573 23.5326 26.6094 23.6654 26.6094 23.8164C26.6094 23.957 26.5573 24.0872 26.4531 24.207C26.3542 24.3268 26.2083 24.3945 26.0156 24.4102L22.9609 24.582H9.1875C8.96875 24.582 8.78646 24.5117 8.64063 24.3711C8.49479 24.2305 8.42188 24.0482 8.42188 23.8242C8.42188 23.6003 8.49479 23.418 8.64063 23.2773C8.78646 23.1315 8.96875 23.0586 9.1875 23.0586H22.9609L26.0156 23.2148ZM21.0391 28.4414L23.3125 26.2227L26.0469 23.8242L23.3125 21.418L21.0391 19.1992C20.888 19.0482 20.8125 18.8659 20.8125 18.6523C20.8125 18.4336 20.8802 18.2539 21.0156 18.1133C21.1562 17.9674 21.3385 17.8945 21.5625 17.8945C21.6667 17.8945 21.7682 17.918 21.8672 17.9648C21.9714 18.0065 22.0625 18.0664 22.1406 18.1445L27.3203 23.2461C27.4974 23.4128 27.5833 23.6055 27.5781 23.8242C27.5729 24.0482 27.487 24.2383 27.3203 24.3945L22.1406 29.4961C22.0625 29.5742 21.9714 29.6341 21.8672 29.6758C21.7682 29.7227 21.6667 29.7461 21.5625 29.7461C21.3385 29.7461 21.1562 29.6758 21.0156 29.5352C20.8802 29.3945 20.8125 29.2122 20.8125 28.9883C20.8125 28.7747 20.888 28.5924 21.0391 28.4414Z" fill="var(--fill-0, #BFBFBF)" style="mix-blend-mode:plus-lighter"/>
</g>
</g>
</svg>
