<svg preserveAspectRatio="none" width="100%" height="100%" overflow="visible" style="display: block;" viewBox="0 0 36 36" fill="none" xmlns="http://www.w3.org/2000/svg">
<g id="Symbol 1">
<rect width="36" height="36" rx="18" fill="var(--fill-0, #767680)" fill-opacity="0.24"/>
<g id="Symbol">
<path d="M18.7617 25.457C18.7617 25.5977 18.7279 25.7253 18.6602 25.8398C18.5924 25.9544 18.4987 26.0456 18.3789 26.1133C18.2643 26.1862 18.1367 26.2227 17.9961 26.2227C17.8607 26.2227 17.7331 26.1862 17.6133 26.1133C17.4987 26.0456 17.4076 25.9544 17.3398 25.8398C17.2721 25.7253 17.2383 25.5977 17.2383 25.457V10.543C17.2383 10.4076 17.2721 10.2826 17.3398 10.168C17.4076 10.0482 17.4987 9.95443 17.6133 9.88672C17.7331 9.8138 17.8607 9.77734 17.9961 9.77734C18.1367 9.77734 18.2643 9.8138 18.3789 9.88672C18.4987 9.95443 18.5924 10.0482 18.6602 10.168C18.7279 10.2826 18.7617 10.4076 18.7617 10.543V25.457ZM10.543 18.7617C10.4023 18.7617 10.2747 18.7279 10.1602 18.6602C10.0456 18.5924 9.95182 18.5013 9.87891 18.3867C9.8112 18.2669 9.77734 18.1393 9.77734 18.0039C9.77734 17.8633 9.8112 17.7357 9.87891 17.6211C9.95182 17.5065 10.0456 17.4154 10.1602 17.3477C10.2747 17.2747 10.4023 17.2383 10.543 17.2383H25.457C25.5977 17.2383 25.7253 17.2747 25.8398 17.3477C25.9544 17.4154 26.0456 17.5065 26.1133 17.6211C26.1862 17.7357 26.2227 17.8633 26.2227 18.0039C26.2227 18.1393 26.1862 18.2669 26.1133 18.3867C26.0456 18.5013 25.9544 18.5924 25.8398 18.6602C25.7253 18.7279 25.5977 18.7617 25.457 18.7617H10.543Z" fill="var(--fill-0, #BFBFBF)" style="mix-blend-mode:plus-lighter"/>
</g>
</g>
</svg>
