<svg width="40" height="40" viewBox="0 0 40 40" fill="none" xmlns="http://www.w3.org/2000/svg">
<g clip-path="url(#clip0_8252_6546)">
<rect width="40" height="40" rx="12" fill="#FF375F"/>
<g style="mix-blend-mode:screen">
<rect width="40" height="40" fill="url(#paint0_linear_8252_6546)" fill-opacity="0.56"/>
<path d="M11.9473 17.8848C11.9473 18.1517 12.0189 18.36 12.1621 18.5098C12.3118 18.6595 12.5202 18.7344 12.7871 18.7344H14.5938V20.4922C14.5938 20.7526 14.6621 20.9577 14.7988 21.1074C14.9421 21.2572 15.1406 21.332 15.3945 21.332C15.6419 21.332 15.8372 21.2572 15.9805 21.1074C16.1237 20.9577 16.1953 20.7526 16.1953 20.4922V18.7344H17.8848C18.1712 18.7344 18.3926 18.6595 18.5488 18.5098C18.7116 18.36 18.793 18.1517 18.793 17.8848C18.793 17.6309 18.7116 17.4323 18.5488 17.2891C18.3926 17.1393 18.1712 17.0645 17.8848 17.0645H16.1953V15.3066C16.1953 15.0462 16.1237 14.8444 15.9805 14.7012C15.8372 14.5514 15.6419 14.4766 15.3945 14.4766C15.1406 14.4766 14.9421 14.5514 14.7988 14.7012C14.6621 14.8444 14.5938 15.0462 14.5938 15.3066V17.0645H12.7871C12.5202 17.0645 12.3118 17.1393 12.1621 17.2891C12.0189 17.4323 11.9473 17.6309 11.9473 17.8848ZM26.3613 17.7871C26.7715 17.7871 27.1198 17.6439 27.4062 17.3574C27.6927 17.071 27.8359 16.7259 27.8359 16.3223C27.8359 15.9121 27.6927 15.5638 27.4062 15.2773C27.1198 14.9909 26.7715 14.8477 26.3613 14.8477C25.9577 14.8477 25.6094 14.9909 25.3164 15.2773C25.0299 15.5638 24.8867 15.9121 24.8867 16.3223C24.8867 16.7259 25.0299 17.071 25.3164 17.3574C25.6094 17.6439 25.9577 17.7871 26.3613 17.7871ZM23.4023 20.7656C23.806 20.7656 24.151 20.6257 24.4375 20.3457C24.7305 20.0592 24.877 19.7109 24.877 19.3008C24.877 18.8971 24.7305 18.5521 24.4375 18.2656C24.151 17.9727 23.806 17.8262 23.4023 17.8262C22.9987 17.8262 22.6504 17.9727 22.3574 18.2656C22.071 18.5521 21.9277 18.8971 21.9277 19.3008C21.9277 19.7109 22.071 20.0592 22.3574 20.3457C22.6504 20.6257 22.9987 20.7656 23.4023 20.7656ZM9.7207 28.6953C8.97852 28.6953 8.32747 28.5391 7.76758 28.2266C7.20768 27.9206 6.77148 27.4844 6.45898 26.918C6.15299 26.3516 6 25.6875 6 24.9258C6 24.4375 6.05208 23.9134 6.15625 23.3535C6.26693 22.7936 6.41667 22.1979 6.60547 21.5664C6.80078 20.8958 7.04167 20.1667 7.32812 19.3789C7.61458 18.5911 7.92057 17.7969 8.24609 16.9961C8.57812 16.1888 8.91016 15.4336 9.24219 14.7305C9.52214 14.1445 9.78581 13.6562 10.0332 13.2656C10.2806 12.875 10.5931 12.556 10.9707 12.3086C11.3548 12.0612 11.8919 11.8594 12.582 11.7031C13.5 11.4948 14.5905 11.3255 15.8535 11.1953C17.123 11.0651 18.5391 11 20.1016 11C21.6641 11 23.0768 11.0651 24.3398 11.1953C25.6029 11.3255 26.6934 11.4948 27.6113 11.7031C28.3014 11.8594 28.8353 12.0612 29.2129 12.3086C29.597 12.556 29.9128 12.875 30.1602 13.2656C30.4076 13.6562 30.6712 14.1445 30.9512 14.7305C31.2832 15.4336 31.612 16.1888 31.9375 16.9961C32.2695 17.7969 32.5788 18.5911 32.8652 19.3789C33.1517 20.1667 33.3926 20.8958 33.5879 21.5664C33.7767 22.1979 33.9232 22.7936 34.0273 23.3535C34.138 23.9134 34.1934 24.4375 34.1934 24.9258C34.1934 25.6875 34.0371 26.3516 33.7246 26.918C33.4186 27.4844 32.9857 27.9206 32.4258 28.2266C31.8659 28.5391 31.2148 28.6953 30.4727 28.6953C29.8021 28.6953 29.2227 28.5716 28.7344 28.3242C28.2526 28.0768 27.8066 27.6992 27.3965 27.1914L25.6289 25.0527C25.4987 24.8965 25.362 24.7826 25.2188 24.7109C25.0755 24.6393 24.9323 24.6035 24.7891 24.6035H15.4043C15.2611 24.6035 15.1178 24.6393 14.9746 24.7109C14.8314 24.7826 14.6947 24.8965 14.5645 25.0527L12.7969 27.1914C12.3867 27.6992 11.9375 28.0768 11.4492 28.3242C10.9674 28.5716 10.3913 28.6953 9.7207 28.6953Z" fill="white"/>
</g>
</g>
<defs>
<linearGradient id="paint0_linear_8252_6546" x1="20" y1="0" x2="20" y2="40" gradientUnits="userSpaceOnUse">
<stop stop-color="white"/>
<stop offset="1" stop-color="white" stop-opacity="0"/>
</linearGradient>
<clipPath id="clip0_8252_6546">
<rect width="40" height="40" rx="12" fill="white"/>
</clipPath>
</defs>
</svg>
