<svg width="40" height="40" viewBox="0 0 40 40" fill="none" xmlns="http://www.w3.org/2000/svg">
<g clip-path="url(#clip0_8252_6484)">
<rect width="40" height="40" rx="12" fill="#FF4245"/>
<g style="mix-blend-mode:screen">
<rect width="40" height="40" fill="url(#paint0_linear_8252_6484)" fill-opacity="0.56"/>
<path d="M7.99219 10.7324C7.99219 10.5371 8.0638 10.3678 8.20703 10.2246C8.35026 10.0749 8.51953 10 8.71484 10H12.1426C12.6439 10 12.9824 10.0944 13.1582 10.2832C13.3405 10.472 13.4577 10.7552 13.5098 11.1328L13.7051 12.373H29.6426C29.9095 12.373 30.1243 12.4479 30.2871 12.5977C30.4499 12.7409 30.5312 12.9297 30.5312 13.1641C30.5312 13.2096 30.528 13.2682 30.5215 13.3398C30.515 13.4049 30.5052 13.4701 30.4922 13.5352L29.7109 18.7012C29.6068 19.4043 29.3659 19.9609 28.9883 20.3711C28.6107 20.7747 28.0638 20.9766 27.3477 20.9766H14.9551L15.1113 22.002C15.1504 22.3014 15.2546 22.5423 15.4238 22.7246C15.5996 22.9004 15.8242 22.9883 16.0977 22.9883H27.3281C27.5169 22.9883 27.6829 23.0599 27.8262 23.2031C27.9694 23.3398 28.041 23.5124 28.041 23.7207C28.041 23.929 27.9694 24.1048 27.8262 24.248C27.6829 24.3848 27.5169 24.4531 27.3281 24.4531H15.9316C15.222 24.4531 14.6784 24.2513 14.3008 23.8477C13.9232 23.444 13.6823 22.8939 13.5781 22.1973L12.0156 11.4746H8.71484C8.51953 11.4746 8.35026 11.403 8.20703 11.2598C8.0638 11.11 7.99219 10.9342 7.99219 10.7324ZM15.1113 27.6172C15.1113 27.3242 15.1829 27.0573 15.3262 26.8164C15.4694 26.5755 15.6582 26.3835 15.8926 26.2402C16.1335 26.1035 16.4036 26.0352 16.7031 26.0352C17.1393 26.0352 17.5104 26.1882 17.8164 26.4941C18.1289 26.8001 18.2852 27.1745 18.2852 27.6172C18.2852 28.0599 18.1289 28.4342 17.8164 28.7402C17.5104 29.0462 17.1393 29.1992 16.7031 29.1992C16.4036 29.1992 16.1335 29.1276 15.8926 28.9844C15.6582 28.8477 15.4694 28.6589 15.3262 28.418C15.1829 28.1771 15.1113 27.9102 15.1113 27.6172ZM24.2422 27.6172C24.2422 27.3242 24.3138 27.0573 24.457 26.8164C24.6003 26.5755 24.7923 26.3835 25.0332 26.2402C25.2741 26.1035 25.541 26.0352 25.834 26.0352C26.2767 26.0352 26.651 26.1882 26.957 26.4941C27.2695 26.8001 27.4258 27.1745 27.4258 27.6172C27.4258 28.0599 27.2695 28.4342 26.957 28.7402C26.651 29.0462 26.2767 29.1992 25.834 29.1992C25.3978 29.1992 25.0234 29.0462 24.7109 28.7402C24.3984 28.4342 24.2422 28.0599 24.2422 27.6172Z" fill="white"/>
</g>
</g>
<defs>
<linearGradient id="paint0_linear_8252_6484" x1="20" y1="0" x2="20" y2="40" gradientUnits="userSpaceOnUse">
<stop stop-color="white"/>
<stop offset="1" stop-color="white" stop-opacity="0"/>
</linearGradient>
<clipPath id="clip0_8252_6484">
<rect width="40" height="40" rx="12" fill="white"/>
</clipPath>
</defs>
</svg>
