<svg width="40" height="40" viewBox="0 0 40 40" fill="none" xmlns="http://www.w3.org/2000/svg">
<g clip-path="url(#clip0_8252_6556)">
<rect width="40" height="40" rx="12" fill="#0091FF"/>
<g style="mix-blend-mode:screen">
<rect width="40" height="40" fill="url(#paint0_linear_8252_6556)" fill-opacity="0.56"/>
<path d="M17.0234 28.9648H22.2969V23.2227C22.2969 23.0013 22.2285 22.8223 22.0918 22.6855C21.9616 22.5488 21.7826 22.4805 21.5547 22.4805H17.7754C17.5475 22.4805 17.3652 22.5488 17.2285 22.6855C17.0918 22.8223 17.0234 23.0013 17.0234 23.2227V28.9648ZM11.0469 28.3887V20.6348L19.0742 13.9062C19.4648 13.5742 19.8555 13.5742 20.2461 13.9062L28.2734 20.6348V28.3887C28.2734 29.0658 28.0781 29.5931 27.6875 29.9707C27.3034 30.3483 26.7695 30.5371 26.0859 30.5371H13.2441C12.554 30.5371 12.0137 30.3483 11.623 29.9707C11.2389 29.5931 11.0469 29.0658 11.0469 28.3887ZM8.83984 20.4297C8.57943 20.4297 8.37435 20.3516 8.22461 20.1953C8.07487 20.0326 8 19.8503 8 19.6484C8 19.3945 8.10417 19.1829 8.3125 19.0137L18.4883 10.4688C18.8529 10.1562 19.2435 10 19.6602 10C20.0768 10 20.4674 10.1562 20.832 10.4688L31.0078 19.0137C31.2161 19.1829 31.3203 19.3945 31.3203 19.6484C31.3203 19.8503 31.2454 20.0326 31.0957 20.1953C30.9525 20.3516 30.7474 20.4297 30.4805 20.4297C30.3438 20.4297 30.2168 20.3971 30.0996 20.332C29.9889 20.2669 29.8848 20.1953 29.7871 20.1172L20.002 11.9043C19.8978 11.8132 19.7839 11.7676 19.6602 11.7676C19.5365 11.7676 19.4225 11.8132 19.3184 11.9043L9.54297 20.1172C9.4388 20.1953 9.32812 20.2669 9.21094 20.332C9.10026 20.3971 8.97656 20.4297 8.83984 20.4297ZM26.0176 15.2441V12.9102C26.0176 12.6953 26.0827 12.526 26.2129 12.4023C26.3431 12.2721 26.5124 12.207 26.7207 12.207H27.7656C27.9805 12.207 28.1497 12.2721 28.2734 12.4023C28.4036 12.526 28.4688 12.6953 28.4688 12.9102V17.3145L26.0176 15.2441Z" fill="white"/>
</g>
</g>
<defs>
<linearGradient id="paint0_linear_8252_6556" x1="20" y1="0" x2="20" y2="40" gradientUnits="userSpaceOnUse">
<stop stop-color="white"/>
<stop offset="1" stop-color="white" stop-opacity="0"/>
</linearGradient>
<clipPath id="clip0_8252_6556">
<rect width="40" height="40" rx="12" fill="white"/>
</clipPath>
</defs>
</svg>
