<svg width="40" height="40" viewBox="0 0 40 40" fill="none" xmlns="http://www.w3.org/2000/svg">
<g clip-path="url(#clip0_8252_6496)">
<rect width="40" height="40" rx="12" fill="#30D158"/>
<g style="mix-blend-mode:screen">
<rect width="40" height="40" fill="url(#paint0_linear_8252_6496)" fill-opacity="0.56"/>
<path d="M8.48438 24.9609C7.63542 24.9609 7.00781 24.7552 6.60156 24.3438C6.20052 23.9271 6 23.2734 6 22.3828V21.3828C6 20.7682 6.13802 20.2188 6.41406 19.7344C6.6901 19.2448 7.08594 18.8438 7.60156 18.5312C8.1224 18.2188 8.74479 18.0182 9.46875 17.9297L12.9297 17.5078L16.0938 15.5234C16.5729 15.2214 17.0286 14.974 17.4609 14.7812C17.8984 14.5833 18.3568 14.4271 18.8359 14.3125C19.3151 14.1979 19.8516 14.1172 20.4453 14.0703C21.0443 14.0234 21.7422 14 22.5391 14H23.7266C24.4609 14 25.1458 14.0885 25.7812 14.2656C26.4219 14.4375 27.0182 14.6667 27.5703 14.9531C28.1276 15.2396 28.6406 15.5547 29.1094 15.8984C29.5833 16.2422 30.0156 16.5807 30.4062 16.9141L31.6484 17.3281C32.388 17.5677 32.9375 17.9219 33.2969 18.3906C33.6562 18.8542 33.8359 19.4479 33.8359 20.1719V22.3359C33.8359 23.2422 33.6354 23.9062 33.2344 24.3281C32.8333 24.75 32.2057 24.9609 31.3516 24.9609H30.8516C30.8776 24.8411 30.8984 24.7214 30.9141 24.6016C30.9297 24.4766 30.9375 24.3516 30.9375 24.2266C30.9375 23.6172 30.7917 23.0677 30.5 22.5781C30.2083 22.0885 29.8151 21.7005 29.3203 21.4141C28.8307 21.1224 28.2812 20.9766 27.6719 20.9766C27.0677 20.9766 26.5182 21.1224 26.0234 21.4141C25.5339 21.7005 25.1432 22.0885 24.8516 22.5781C24.5599 23.0677 24.4141 23.6172 24.4141 24.2266C24.4141 24.3516 24.4219 24.4766 24.4375 24.6016C24.4531 24.7214 24.4714 24.8411 24.4922 24.9609H15.3281C15.3594 24.8411 15.3802 24.7214 15.3906 24.6016C15.4062 24.4766 15.4141 24.3516 15.4141 24.2266C15.4141 23.6172 15.2682 23.0677 14.9766 22.5781C14.6901 22.0885 14.2995 21.7005 13.8047 21.4141C13.3151 21.1224 12.7656 20.9766 12.1562 20.9766C11.5469 20.9766 10.9948 21.1224 10.5 21.4141C10.0104 21.7005 9.61979 22.0885 9.32812 22.5781C9.04167 23.0677 8.89844 23.6172 8.89844 24.2266C8.89844 24.3516 8.90365 24.4766 8.91406 24.6016C8.92969 24.7214 8.95052 24.8411 8.97656 24.9609H8.48438ZM12.1562 26.5703C11.7188 26.5703 11.3229 26.4661 10.9688 26.2578C10.6146 26.0495 10.3333 25.7682 10.125 25.4141C9.91667 25.0599 9.8125 24.6641 9.8125 24.2266C9.8125 23.7891 9.91667 23.3932 10.125 23.0391C10.3333 22.6849 10.6146 22.4036 10.9688 22.1953C11.3229 21.987 11.7188 21.8828 12.1562 21.8828C12.599 21.8828 12.9974 21.987 13.3516 22.1953C13.7057 22.4036 13.987 22.6849 14.1953 23.0391C14.4036 23.3932 14.5078 23.7891 14.5078 24.2266C14.5078 24.6641 14.4036 25.0599 14.1953 25.4141C13.987 25.7682 13.7057 26.0495 13.3516 26.2578C12.9974 26.4661 12.599 26.5703 12.1562 26.5703ZM27.6719 26.5703C27.2344 26.5703 26.8385 26.4661 26.4844 26.2578C26.1302 26.0495 25.849 25.7682 25.6406 25.4141C25.4323 25.0599 25.3281 24.6641 25.3281 24.2266C25.3281 23.7891 25.4323 23.3932 25.6406 23.0391C25.849 22.6849 26.1302 22.4036 26.4844 22.1953C26.8385 21.987 27.2344 21.8828 27.6719 21.8828C28.1146 21.8828 28.513 21.987 28.8672 22.1953C29.2214 22.4036 29.5026 22.6849 29.7109 23.0391C29.9193 23.3932 30.0234 23.7891 30.0234 24.2266C30.0234 24.6641 29.9193 25.0599 29.7109 25.4141C29.5026 25.7682 29.2214 26.0495 28.8672 26.2578C28.513 26.4661 28.1146 26.5703 27.6719 26.5703Z" fill="white"/>
</g>
</g>
<defs>
<linearGradient id="paint0_linear_8252_6496" x1="20" y1="0" x2="20" y2="40" gradientUnits="userSpaceOnUse">
<stop stop-color="white"/>
<stop offset="1" stop-color="white" stop-opacity="0"/>
</linearGradient>
<clipPath id="clip0_8252_6496">
<rect width="40" height="40" rx="12" fill="white"/>
</clipPath>
</defs>
</svg>
