<svg preserveAspectRatio="none" width="100%" height="100%" overflow="visible" style="display: block;" viewBox="0 0 23.9062 23.8945" fill="none" xmlns="http://www.w3.org/2000/svg">
<g id="&#244;&#128;&#156;&#139;" style="mix-blend-mode:plus-lighter">
<path d="M11.9531 23.8945C10.3203 23.8945 8.78125 23.582 7.33594 22.957C5.89844 22.332 4.62891 21.4727 3.52734 20.3789C2.42578 19.2773 1.5625 18.0039 0.9375 16.5586C0.3125 15.1133 0 13.5742 0 11.9414C0 10.3945 0.28125 8.93359 0.84375 7.55859C1.40625 6.17578 2.1875 4.94531 3.1875 3.86719C4.1875 2.78906 5.34766 1.91406 6.66797 1.24219C7.98828 0.570312 9.41016 0.167969 10.9336 0.0351562V12.0469C10.9336 12.2031 10.9492 12.3359 10.9805 12.4453C11.0195 12.5547 11.0977 12.6641 11.2148 12.7734L19.6523 21.0469C18.5664 21.9609 17.3633 22.6641 16.043 23.1562C14.7227 23.6484 13.3594 23.8945 11.9531 23.8945ZM23.9062 11.9414C23.9062 13.4336 23.6289 14.8711 23.0742 16.2539C22.5273 17.6367 21.7734 18.8555 20.8125 19.9102L13.1602 12.3516L22.7344 6.84375C23.1094 7.59375 23.3984 8.41016 23.6016 9.29297C23.8047 10.1758 23.9062 11.0586 23.9062 11.9414ZM12.5039 10.9102V0C13.7461 0.0546875 14.9609 0.3125 16.1484 0.773438C17.3359 1.23438 18.4297 1.86719 19.4297 2.67188C20.4375 3.47656 21.2812 4.41016 21.9609 5.47266L12.5039 10.9102Z" fill="var(--fill-0, #BFBFBF)"/>
</g>
</svg>
