<svg preserveAspectRatio="none" width="100%" height="100%" overflow="visible" style="display: block;" viewBox="0 0 27.9844 24.6445" fill="none" xmlns="http://www.w3.org/2000/svg">
<path id="&#244;&#128;&#142;&#159;" d="M10.8281 22.7578H17.1562V15.8672C17.1562 15.6016 17.0742 15.3867 16.9102 15.2227C16.7539 15.0586 16.5391 14.9766 16.2656 14.9766H11.7305C11.457 14.9766 11.2383 15.0586 11.0742 15.2227C10.9102 15.3867 10.8281 15.6016 10.8281 15.8672V22.7578ZM3.65625 22.0664V12.7617L13.2891 4.6875C13.7578 4.28906 14.2266 4.28906 14.6953 4.6875L24.3281 12.7617V22.0664C24.3281 22.8789 24.0938 23.5117 23.625 23.9648C23.1641 24.418 22.5234 24.6445 21.7031 24.6445H6.29297C5.46484 24.6445 4.81641 24.418 4.34766 23.9648C3.88672 23.5117 3.65625 22.8789 3.65625 22.0664ZM1.00781 12.5156C0.695312 12.5156 0.449219 12.4219 0.269531 12.2344C0.0898438 12.0391 0 11.8203 0 11.5781C0 11.2734 0.125 11.0195 0.375 10.8164L12.5859 0.5625C13.0234 0.1875 13.4922 0 13.9922 0C14.4922 0 14.9609 0.1875 15.3984 0.5625L27.6094 10.8164C27.8594 11.0195 27.9844 11.2734 27.9844 11.5781C27.9844 11.8203 27.8945 12.0391 27.7148 12.2344C27.543 12.4219 27.2969 12.5156 26.9766 12.5156C26.8125 12.5156 26.6602 12.4766 26.5195 12.3984C26.3867 12.3203 26.2617 12.2344 26.1445 12.1406L14.4023 2.28516C14.2773 2.17578 14.1406 2.12109 13.9922 2.12109C13.8438 2.12109 13.707 2.17578 13.582 2.28516L1.85156 12.1406C1.72656 12.2344 1.59375 12.3203 1.45312 12.3984C1.32031 12.4766 1.17188 12.5156 1.00781 12.5156ZM21.6211 6.29297V3.49219C21.6211 3.23438 21.6992 3.03125 21.8555 2.88281C22.0117 2.72656 22.2148 2.64844 22.4648 2.64844H23.7188C23.9766 2.64844 24.1797 2.72656 24.3281 2.88281C24.4844 3.03125 24.5625 3.23438 24.5625 3.49219V8.77734L21.6211 6.29297Z" fill="var(--fill-0, white)"/>
</svg>
