<svg width="40" height="40" viewBox="0 0 40 40" fill="none" xmlns="http://www.w3.org/2000/svg">
<g clip-path="url(#clip0_8252_6502)">
<rect width="40" height="40" rx="12" fill="#8E8E93"/>
<g style="mix-blend-mode:screen">
<rect width="40" height="40" fill="url(#paint0_linear_8252_6502)" fill-opacity="0.56"/>
<path d="M14.4844 21.9609C14.2083 21.9609 13.9583 21.8958 13.7344 21.7656C13.5104 21.6302 13.3307 21.4505 13.1953 21.2266C13.0651 21.0026 13 20.7552 13 20.4844C13 20.2083 13.0651 19.9583 13.1953 19.7344C13.3307 19.5104 13.5104 19.3333 13.7344 19.2031C13.9583 19.0677 14.2083 19 14.4844 19C14.7552 19 15.0026 19.0677 15.2266 19.2031C15.4505 19.3333 15.6276 19.5104 15.7578 19.7344C15.8932 19.9583 15.9609 20.2083 15.9609 20.4844C15.9609 20.7552 15.8932 21.0026 15.7578 21.2266C15.6276 21.4505 15.4505 21.6302 15.2266 21.7656C15.0026 21.8958 14.7552 21.9609 14.4844 21.9609ZM20.2891 21.9609C20.013 21.9609 19.763 21.8958 19.5391 21.7656C19.3151 21.6302 19.1354 21.4505 19 21.2266C18.8698 21.0026 18.8047 20.7552 18.8047 20.4844C18.8047 20.2083 18.8698 19.9583 19 19.7344C19.1354 19.5104 19.3151 19.3333 19.5391 19.2031C19.763 19.0677 20.013 19 20.2891 19C20.5599 19 20.8073 19.0677 21.0312 19.2031C21.2552 19.3333 21.4323 19.5104 21.5625 19.7344C21.6979 19.9583 21.7656 20.2083 21.7656 20.4844C21.7656 20.7552 21.6979 21.0026 21.5625 21.2266C21.4323 21.4505 21.2552 21.6302 21.0312 21.7656C20.8073 21.8958 20.5599 21.9609 20.2891 21.9609ZM26.0938 21.9609C25.8177 21.9609 25.5677 21.8958 25.3438 21.7656C25.1198 21.6302 24.9401 21.4505 24.8047 21.2266C24.6745 21.0026 24.6094 20.7552 24.6094 20.4844C24.6094 20.2083 24.6745 19.9583 24.8047 19.7344C24.9401 19.5104 25.1198 19.3333 25.3438 19.2031C25.5677 19.0677 25.8177 19 26.0938 19C26.3646 19 26.612 19.0677 26.8359 19.2031C27.0599 19.3333 27.2396 19.5104 27.375 19.7344C27.5104 19.9583 27.5781 20.2083 27.5781 20.4844C27.5781 20.7552 27.5104 21.0026 27.375 21.2266C27.2396 21.4505 27.0599 21.6302 26.8359 21.7656C26.612 21.8958 26.3646 21.9609 26.0938 21.9609Z" fill="white"/>
</g>
</g>
<defs>
<linearGradient id="paint0_linear_8252_6502" x1="20" y1="0" x2="20" y2="40" gradientUnits="userSpaceOnUse">
<stop stop-color="white"/>
<stop offset="1" stop-color="white" stop-opacity="0"/>
</linearGradient>
<clipPath id="clip0_8252_6502">
<rect width="40" height="40" rx="12" fill="white"/>
</clipPath>
</defs>
</svg>
