<svg width="40" height="40" viewBox="0 0 40 40" fill="none" xmlns="http://www.w3.org/2000/svg">
<g clip-path="url(#clip0_8252_6510)">
<rect width="40" height="40" rx="12" fill="#FF9230"/>
<g style="mix-blend-mode:screen">
<rect width="40" height="40" fill="url(#paint0_linear_8252_6510)" fill-opacity="0.56"/>
<path d="M14.8942 30.2702C13.9892 30.2702 13.3121 30.0489 12.8629 29.6062C12.4202 29.17 12.1924 28.5027 12.1793 27.6042L12.0621 18.0144L9.6598 18.5612C9.20407 18.6589 8.82972 18.6166 8.53675 18.4343C8.2503 18.252 8.05173 17.9265 7.94105 17.4577L7.07191 13.9909C6.95472 13.5287 6.98076 13.1381 7.15004 12.8191C7.32582 12.4935 7.63506 12.2364 8.07777 12.0476L14.9528 9.11789C15.1481 9.03325 15.3369 8.99419 15.5192 9.0007C15.7015 9.0007 15.8838 9.04302 16.0661 9.12765C16.4957 9.32947 16.9059 9.49874 17.2965 9.63546C17.6937 9.77218 18.0973 9.87635 18.5075 9.94796C18.9241 10.0196 19.3766 10.0554 19.8649 10.0554C20.3467 10.0554 20.7926 10.0196 21.2028 9.94796C21.6194 9.87635 22.0231 9.77218 22.4137 9.63546C22.8108 9.49874 23.2243 9.32947 23.6539 9.12765C23.8362 9.04302 24.0185 9.0007 24.2008 9.0007C24.3831 8.99419 24.5719 9.03325 24.7672 9.11789L31.6422 12.0476C32.0914 12.2364 32.4007 12.4935 32.57 12.8191C32.7392 13.1381 32.7653 13.5287 32.6481 13.9909L31.7789 17.4577C31.6683 17.9265 31.4664 18.252 31.1735 18.4343C30.887 18.6166 30.5159 18.6589 30.0602 18.5612L27.6676 18.0144L27.5407 27.6042C27.5276 28.5027 27.2965 29.17 26.8473 29.6062C26.4046 30.0489 25.7308 30.2702 24.8258 30.2702H14.8942ZM19.8649 13.1023C20.4248 13.1023 20.9261 13.0111 21.3688 12.8288C21.8115 12.64 22.1858 12.3763 22.4918 12.0378C22.7978 11.6993 23.0322 11.2956 23.195 10.8269C22.6871 11.0222 22.1468 11.1719 21.5739 11.2761C21.0075 11.3803 20.4378 11.4323 19.8649 11.4323C19.2855 11.4323 18.7093 11.3803 18.1364 11.2761C17.57 11.1719 17.0328 11.0222 16.525 10.8269C16.6943 11.3021 16.9319 11.709 17.2379 12.0476C17.5504 12.3861 17.9248 12.6465 18.361 12.8288C18.8037 13.0111 19.305 13.1023 19.8649 13.1023Z" fill="white"/>
</g>
</g>
<defs>
<linearGradient id="paint0_linear_8252_6510" x1="20" y1="0" x2="20" y2="40" gradientUnits="userSpaceOnUse">
<stop stop-color="white"/>
<stop offset="1" stop-color="white" stop-opacity="0"/>
</linearGradient>
<clipPath id="clip0_8252_6510">
<rect width="40" height="40" rx="12" fill="white"/>
</clipPath>
</defs>
</svg>
