<svg width="40" height="40" viewBox="0 0 40 40" fill="none" xmlns="http://www.w3.org/2000/svg">
<g clip-path="url(#clip0_8252_6530)">
<rect width="40" height="40" rx="12" fill="#6B5DFF"/>
<g style="mix-blend-mode:screen">
<rect width="40" height="40" fill="url(#paint0_linear_8252_6530)" fill-opacity="0.56"/>
<path d="M16.3469 31.6465C15.9368 31.6465 15.6145 31.5358 15.3801 31.3145C15.1458 31.0931 15.0318 30.7839 15.0384 30.3867L15.2239 19.4199C15.2239 19.2507 15.1881 19.1042 15.1165 18.9805C15.0449 18.8503 14.9309 18.7526 14.7747 18.6875C14.345 18.4987 13.9934 18.2936 13.72 18.0723C13.4531 17.8444 13.261 17.5547 13.1438 17.2031C13.0266 16.8516 12.9811 16.3893 13.0071 15.8164L13.2708 9.82031C13.2838 9.60547 13.3489 9.43945 13.4661 9.32227C13.5833 9.20508 13.7428 9.14648 13.9446 9.14648C14.1399 9.14648 14.2897 9.20833 14.3938 9.33203C14.5045 9.44922 14.5598 9.61849 14.5598 9.83984L14.4915 15.6699C14.4915 16.041 14.6738 16.2266 15.0384 16.2266C15.2011 16.2266 15.3346 16.181 15.4387 16.0898C15.5494 15.9922 15.6048 15.862 15.6048 15.6992L15.7024 9.66406C15.7024 9.45573 15.761 9.29297 15.8782 9.17578C15.9954 9.05859 16.1516 9 16.3469 9C16.5488 9 16.705 9.05859 16.8157 9.17578C16.9329 9.29297 16.9947 9.45573 17.0012 9.66406L17.0989 15.6992C17.0989 15.862 17.151 15.9922 17.2551 16.0898C17.3593 16.181 17.496 16.2266 17.6653 16.2266C17.8216 16.2266 17.9485 16.1777 18.0462 16.0801C18.1503 15.9824 18.2024 15.8457 18.2024 15.6699L18.1341 9.83984C18.1341 9.61849 18.1894 9.44922 18.3001 9.33203C18.4107 9.20833 18.5605 9.14648 18.7493 9.14648C19.179 9.14648 19.4036 9.37109 19.4231 9.82031L19.6966 15.8164C19.7161 16.3893 19.6673 16.8516 19.5501 17.2031C19.4329 17.5547 19.2376 17.8444 18.9641 18.0723C18.6972 18.2936 18.3489 18.4987 17.9192 18.6875C17.7695 18.7526 17.6555 18.8503 17.5774 18.9805C17.5058 19.1042 17.47 19.2507 17.47 19.4199L17.6653 30.3867C17.6653 30.7839 17.5481 31.0931 17.3137 31.3145C17.0794 31.5358 16.7571 31.6465 16.3469 31.6465ZM23.9934 23.1309C23.9999 22.9551 23.9609 22.7988 23.8762 22.6621C23.7981 22.5189 23.6744 22.3854 23.5051 22.2617L22.9192 21.8711C22.6783 21.7083 22.496 21.5033 22.3723 21.2559C22.2486 21.0085 22.1868 20.7155 22.1868 20.377V19.8984C22.1868 18.9219 22.2486 17.9453 22.3723 16.9688C22.496 15.9922 22.6718 15.0514 22.8997 14.1465C23.1341 13.235 23.4107 12.3984 23.7298 11.6367C24.0488 10.8685 24.4036 10.2077 24.7942 9.6543C24.957 9.42643 25.1067 9.26042 25.2434 9.15625C25.3801 9.05208 25.5397 9 25.7219 9C25.9042 9 26.067 9.06185 26.2102 9.18555C26.3535 9.30273 26.4251 9.48503 26.4251 9.73242V30.4453C26.4251 30.8359 26.3046 31.1322 26.0637 31.334C25.8229 31.5423 25.4973 31.6465 25.0872 31.6465C24.6835 31.6465 24.3613 31.5326 24.1204 31.3047C23.8795 31.0833 23.7656 30.7611 23.7786 30.3379L23.9934 23.1309Z" fill="white"/>
</g>
</g>
<defs>
<linearGradient id="paint0_linear_8252_6530" x1="20" y1="0" x2="20" y2="40" gradientUnits="userSpaceOnUse">
<stop stop-color="white"/>
<stop offset="1" stop-color="white" stop-opacity="0"/>
</linearGradient>
<clipPath id="clip0_8252_6530">
<rect width="40" height="40" rx="12" fill="white"/>
</clipPath>
</defs>
</svg>
