<svg width="40" height="40" viewBox="0 0 40 40" fill="none" xmlns="http://www.w3.org/2000/svg">
<g clip-path="url(#clip0_8252_6538)">
<rect width="40" height="40" rx="12" fill="#FF375F"/>
<g style="mix-blend-mode:screen">
<rect width="40" height="40" fill="url(#paint0_linear_8252_6538)" fill-opacity="0.56"/>
<path d="M13.252 12.4609C13.8444 11.9206 14.502 11.4551 15.2246 11.0645C15.9473 10.6738 16.7122 10.3809 17.5195 10.1855C17.1549 10.6087 16.8197 11.1458 16.5137 11.7969C16.2077 12.4414 15.9473 13.1803 15.7324 14.0137C15.2051 13.8314 14.7331 13.61 14.3164 13.3496C13.8997 13.0892 13.5449 12.793 13.252 12.4609ZM16.8262 14.3262C17.1126 13.1413 17.4772 12.1745 17.9199 11.4258C18.3691 10.6771 18.8574 10.2018 19.3848 10V14.6191C18.916 14.6061 18.4668 14.5736 18.0371 14.5215C17.6139 14.4694 17.2103 14.4043 16.8262 14.3262ZM20.5078 14.6191V10C21.0286 10.2018 21.5104 10.6771 21.9531 11.4258C22.4023 12.1745 22.7702 13.1413 23.0566 14.3262C22.666 14.4043 22.2591 14.4694 21.8359 14.5215C21.4128 14.5736 20.9701 14.6061 20.5078 14.6191ZM24.1504 14.0137C23.9355 13.1803 23.6751 12.4414 23.3691 11.7969C23.0632 11.1458 22.7246 10.6087 22.3535 10.1855C23.1673 10.3809 23.9323 10.6738 24.6484 11.0645C25.3711 11.4551 26.0286 11.9206 26.6211 12.4609C26.3346 12.793 25.9831 13.0892 25.5664 13.3496C25.1497 13.61 24.6777 13.8314 24.1504 14.0137ZM10 19.2773C10.0651 18.112 10.319 17.0117 10.7617 15.9766C11.2044 14.9349 11.7936 14.0039 12.5293 13.1836C12.7897 13.5807 13.1771 13.9421 13.6914 14.2676C14.2057 14.5931 14.8112 14.8698 15.5078 15.0977C15.3841 15.7096 15.2865 16.3672 15.2148 17.0703C15.1497 17.7734 15.1107 18.5091 15.0977 19.2773H10ZM16.25 19.2773C16.263 18.5742 16.2988 17.8971 16.3574 17.2461C16.416 16.5951 16.5007 15.9798 16.6113 15.4004C17.0345 15.498 17.4772 15.5762 17.9395 15.6348C18.4082 15.6934 18.89 15.7292 19.3848 15.7422V19.2773H16.25ZM20.5078 19.2773V15.7422C20.9961 15.7292 21.4714 15.6934 21.9336 15.6348C22.3958 15.5762 22.8418 15.498 23.2715 15.4004C23.3822 15.9798 23.4668 16.5951 23.5254 17.2461C23.584 17.8971 23.6198 18.5742 23.6328 19.2773H20.5078ZM24.7949 19.2773C24.7754 18.5091 24.7298 17.7734 24.6582 17.0703C24.5866 16.3672 24.4922 15.7096 24.375 15.0977C25.0716 14.8698 25.6771 14.5931 26.1914 14.2676C26.7057 13.9421 27.0931 13.5807 27.3535 13.1836C28.0892 14.0039 28.6784 14.9349 29.1211 15.9766C29.5638 17.0117 29.8177 18.112 29.8828 19.2773H24.7949ZM12.5488 26.5137C11.8066 25.6999 11.2109 24.7721 10.7617 23.7305C10.319 22.6888 10.0651 21.5788 10 20.4004H15.0879C15.1074 21.1816 15.1497 21.9271 15.2148 22.6367C15.2865 23.3464 15.3841 24.0137 15.5078 24.6387C14.8177 24.86 14.2188 25.1335 13.7109 25.459C13.2031 25.778 12.8158 26.1296 12.5488 26.5137ZM16.6113 24.3262C16.5072 23.7467 16.4225 23.1283 16.3574 22.4707C16.2923 21.8066 16.2533 21.1165 16.2402 20.4004H19.3848V23.9941C18.4082 24.0267 17.4837 24.1374 16.6113 24.3262ZM20.5078 23.9941V20.4004H23.6426C23.6296 21.1165 23.5905 21.8066 23.5254 22.4707C23.4603 23.1283 23.3724 23.7467 23.2617 24.3262C22.3958 24.1374 21.4779 24.0267 20.5078 23.9941ZM24.375 24.6387C24.4922 24.0137 24.5866 23.3464 24.6582 22.6367C24.7298 21.9271 24.7754 21.1816 24.7949 20.4004H29.8828C29.8177 21.5788 29.5605 22.6888 29.1113 23.7305C28.6621 24.7721 28.0697 25.6999 27.334 26.5137C27.0671 26.1296 26.6797 25.778 26.1719 25.459C25.6641 25.1335 25.0651 24.86 24.375 24.6387ZM17.4902 29.4922C16.696 29.2969 15.9408 29.0072 15.2246 28.623C14.515 28.2389 13.8672 27.7767 13.2812 27.2363C13.8607 26.5918 14.6777 26.0872 15.7324 25.7227C15.9473 26.543 16.2044 27.2689 16.5039 27.9004C16.8034 28.5384 17.1322 29.069 17.4902 29.4922ZM19.3848 29.7266C18.8574 29.5247 18.3691 29.0462 17.9199 28.291C17.4772 27.5423 17.1159 26.582 16.8359 25.4102C17.6172 25.2344 18.4668 25.1367 19.3848 25.1172V29.7266ZM20.5078 29.7266V25.1172C20.9635 25.1302 21.403 25.1628 21.8262 25.2148C22.2559 25.2604 22.6628 25.3255 23.0469 25.4102C22.7604 26.582 22.3958 27.5423 21.9531 28.291C21.5104 29.0462 21.0286 29.5247 20.5078 29.7266ZM22.3926 29.4922C22.7507 29.069 23.0794 28.5384 23.3789 27.9004C23.6784 27.2689 23.9355 26.543 24.1504 25.7227C25.1986 26.0872 26.0189 26.5918 26.6113 27.2363C26.0189 27.7767 25.3646 28.2389 24.6484 28.623C23.9388 29.0072 23.1868 29.2969 22.3926 29.4922Z" fill="white"/>
</g>
</g>
<defs>
<linearGradient id="paint0_linear_8252_6538" x1="20" y1="0" x2="20" y2="40" gradientUnits="userSpaceOnUse">
<stop stop-color="white"/>
<stop offset="1" stop-color="white" stop-opacity="0"/>
</linearGradient>
<clipPath id="clip0_8252_6538">
<rect width="40" height="40" rx="12" fill="white"/>
</clipPath>
</defs>
</svg>
